<?xml version="1.0" encoding="utf-8"?>
<!-- Generator: Adobe Illustrator 24.0.1, SVG Export Plug-In . SVG Version: 6.00 Build 0)  -->
<svg version="1.1" xmlns="http://www.w3.org/2000/svg" xmlns:xlink="http://www.w3.org/1999/xlink" x="0px" y="0px"
	 viewBox="0 0 1190.55 476.57" style="enable-background:new 0 0 1190.55 476.57;" xml:space="preserve">
<style type="text/css">
	.st0{fill:#FFFFFF;stroke:#000000;stroke-miterlimit:10;}
	.st1{fill:#34302B;}
	.st2{display:none;fill:#9A9899;}
	.st3{display:none;fill:#DE9086;}
	.st4{display:none;fill:#507B57;}
	.st5{display:none;fill:#D24F43;}
	.st6{fill:#D24F43;}
	.st7{fill:#39B54A;stroke:#000000;stroke-miterlimit:10;}
	.st8{fill:#922A8E;stroke:#010101;stroke-miterlimit:10;}
	.st9{fill:#1B75BC;stroke:#000000;stroke-miterlimit:10;}
	.st10{fill:#2DB674;stroke:#010101;stroke-miterlimit:10;}
	.st11{fill:#00A79D;stroke:#000000;stroke-miterlimit:10;}
	.st12{fill:#F15A29;stroke:#000000;stroke-miterlimit:10;}
	.st13{fill:#00A651;stroke:#000000;stroke-miterlimit:10;}
	.st14{fill:#E590AE;stroke:#000000;stroke-miterlimit:10;}
	.st15{display:none;}
	.st16{display:inline;fill:#6497B9;}
	.st17{display:inline;fill:#CC4C56;}
	.st18{display:inline;fill:#653122;}
	.st19{display:inline;fill:#6C6046;}
	.st20{display:inline;fill:#CE4279;}
	.st21{display:inline;fill:#8F4563;}
	.st22{display:inline;fill:#9D7356;}
	.st23{display:inline;fill:#74AE89;}
	.st24{display:inline;fill:#574332;}
	.st25{display:inline;fill:#6A7995;}
	.st26{display:inline;fill:#6C6A71;}
	.st27{display:inline;fill:#5F6E56;}
	.st28{display:inline;fill:#4F84B2;}
	.st29{display:inline;fill:#C94877;}
	.st30{display:inline;fill:#6D747A;}
	.st31{display:inline;fill:#E2E1A9;}
	.st32{display:inline;fill:#829F7A;}
	.st33{display:inline;fill:#763148;}
	.st34{display:inline;fill:#727048;}
	.st35{display:inline;fill:#A9A137;}
	.st36{display:inline;fill:#D9894D;}
	.st37{display:inline;fill:#CFA62B;}
	.st38{display:inline;fill:#897B4E;}
	.st39{display:inline;fill:#D3CC74;}
	.st40{display:inline;fill:#C33266;}
	.st41{display:inline;fill:#ABAB53;}
	.st42{display:inline;fill:#436139;}
	.st43{fill:#84856C;}
	.st44{fill:#FFFFFF;}
	.st45{font-family:'MyriadPro-Bold';}
	.st46{font-size:24px;}
	.st47{fill:none;stroke:#000000;stroke-miterlimit:10;}
	.st48{font-size:14px;}
	.st49{font-size:13.6706px;}
	.st50{stroke:#000000;stroke-miterlimit:10;}
	.st51{font-size:23.6589px;}
</style>
<g id="Layer_1">
	<rect x="153.29" y="144.41" class="st0" width="878.84" height="255.37"/>
	<path class="st1" d="M1031.86,399.78c0.17-37.38,0.57-143.76-0.06-190.1c-0.78-56.72-54.76-65.27-54.76-65.27H821.6v61.61
		c0,0,111.18-0.73,129.22,0c18.04,0.73,18.77,19.51,18.77,19.51v174.25H153.29"/>
	<polyline class="st1" points="154.28,437.72 1032.14,437.72 1032.14,399.78 153.29,399.78 	"/>
	<line class="st1" x1="153.29" y1="437.72" x2="1032.13" y2="437.72"/>
	<rect x="105.43" y="66.57" class="st2" width="381.34" height="225.16"/>
	<rect x="500.38" y="124.57" class="st2" width="600.2" height="167.16"/>
	<rect x="1088.71" y="155.29" class="st3" width="27.21" height="90.64"/>
	<rect x="1082.43" y="172.11" class="st4" width="6.29" height="60.21"/>
	<rect x="993.07" y="121.21" class="st5" width="36.43" height="11.04"/>
	<rect x="768.29" y="121.21" class="st5" width="36.43" height="11.04"/>
	<rect x="369" y="141.43" class="st6" width="101.7" height="30.22"/>
	<rect x="739.22" y="141.43" class="st6" width="101.7" height="30.22"/>
	<rect x="575.26" y="121.21" class="st5" width="36.43" height="11.04"/>
	<rect x="282.61" y="73.14" class="st5" width="36.43" height="10.68"/>
</g>
<g id="Layer_10">
	<rect x="371.4" y="246.41" class="st7" width="28.23" height="18.58"/>
	<rect x="399.63" y="246.41" class="st7" width="28.23" height="18.58"/>
	<rect x="427.86" y="246.41" class="st7" width="28.23" height="18.58"/>
	<rect x="456.09" y="246.41" class="st7" width="28.23" height="18.58"/>
	<rect x="484.32" y="246.41" class="st7" width="28.23" height="18.58"/>
	<rect x="512.54" y="246.41" class="st7" width="28.23" height="18.58"/>
	<rect x="540.77" y="246.41" class="st7" width="28.23" height="18.58"/>
	<rect x="569" y="246.41" class="st7" width="28.23" height="18.58"/>
	<rect x="371.4" y="227.83" class="st7" width="28.23" height="18.58"/>
	<rect x="399.63" y="227.83" class="st7" width="28.23" height="18.58"/>
	<rect x="427.86" y="227.83" class="st7" width="28.23" height="18.58"/>
	<rect x="456.09" y="227.83" class="st7" width="28.23" height="18.58"/>
	<rect x="484.32" y="227.83" class="st7" width="28.23" height="18.58"/>
	<rect x="512.54" y="227.83" class="st7" width="28.23" height="18.58"/>
	<rect x="540.77" y="227.83" class="st7" width="28.23" height="18.58"/>
	<rect x="569" y="227.83" class="st7" width="28.23" height="18.58"/>
	<rect x="371.4" y="199.74" class="st8" width="28.23" height="18.58"/>
	<rect x="399.63" y="199.74" class="st8" width="28.23" height="18.58"/>
	<rect x="427.86" y="199.74" class="st8" width="28.23" height="18.58"/>
	<rect x="456.09" y="199.74" class="st8" width="28.23" height="18.58"/>
	<rect x="484.32" y="199.74" class="st9" width="28.23" height="18.58"/>
	<rect x="512.54" y="199.74" class="st9" width="28.23" height="18.58"/>
	<rect x="540.77" y="199.74" class="st9" width="28.23" height="18.58"/>
	<rect x="569" y="199.74" class="st9" width="28.23" height="18.58"/>
	<rect x="371.4" y="181.16" class="st8" width="28.23" height="18.58"/>
	<rect x="399.63" y="181.16" class="st8" width="28.23" height="18.58"/>
	<rect x="427.86" y="181.16" class="st8" width="28.23" height="18.58"/>
	<rect x="456.09" y="181.16" class="st8" width="28.23" height="18.58"/>
	<rect x="484.32" y="181.16" class="st9" width="28.23" height="18.58"/>
	<rect x="512.54" y="181.16" class="st9" width="28.23" height="18.58"/>
	<rect x="540.77" y="181.16" class="st9" width="28.23" height="18.58"/>
	<rect x="569" y="181.16" class="st9" width="28.23" height="18.58"/>
	<rect x="371.4" y="290.67" class="st7" width="28.23" height="18.58"/>
	<rect x="399.63" y="290.67" class="st7" width="28.23" height="18.58"/>
	<rect x="427.86" y="290.67" class="st7" width="28.23" height="18.58"/>
	<rect x="456.09" y="290.67" class="st7" width="28.23" height="18.58"/>
	<rect x="484.32" y="290.67" class="st7" width="28.23" height="18.58"/>
	<rect x="512.54" y="290.67" class="st10" width="28.23" height="18.58"/>
	<rect x="540.77" y="290.67" class="st10" width="28.23" height="18.58"/>
	<rect x="569" y="290.67" class="st10" width="28.23" height="18.58"/>
	<rect x="371.4" y="272.1" class="st7" width="28.23" height="18.58"/>
	<rect x="399.63" y="272.1" class="st7" width="28.23" height="18.58"/>
	<rect x="427.86" y="272.1" class="st7" width="28.23" height="18.58"/>
	<rect x="456.09" y="272.1" class="st7" width="28.23" height="18.58"/>
	<rect x="484.32" y="272.1" class="st7" width="28.23" height="18.58"/>
	<rect x="512.54" y="272.1" class="st10" width="28.23" height="18.58"/>
	<rect x="540.77" y="272.1" class="st10" width="28.23" height="18.58"/>
	<rect x="569" y="272.1" class="st10" width="28.23" height="18.58"/>
	<rect x="371.4" y="334.96" class="st11" width="28.23" height="18.58"/>
	<rect x="399.63" y="334.96" class="st11" width="28.23" height="18.58"/>
	<rect x="427.86" y="334.96" class="st11" width="28.23" height="18.58"/>
	<rect x="456.09" y="334.96" class="st11" width="28.23" height="18.58"/>
	<rect x="484.32" y="334.96" class="st11" width="28.23" height="18.58"/>
	<rect x="512.54" y="334.96" class="st10" width="28.23" height="18.58"/>
	<rect x="484.32" y="316.38" class="st11" width="28.23" height="18.58"/>
	<rect x="512.54" y="316.38" class="st10" width="28.23" height="18.58"/>
	<rect x="540.77" y="334.96" class="st10" width="28.23" height="18.58"/>
	<rect x="569" y="334.96" class="st10" width="28.23" height="18.58"/>
	<rect x="371.4" y="316.38" class="st11" width="28.23" height="18.58"/>
	<rect x="399.63" y="316.38" class="st11" width="28.23" height="18.58"/>
	<rect x="427.86" y="316.38" class="st11" width="28.23" height="18.58"/>
	<rect x="456.09" y="316.38" class="st11" width="28.23" height="18.58"/>
	<rect x="540.77" y="316.38" class="st10" width="28.23" height="18.58"/>
	<rect x="569" y="316.38" class="st10" width="28.23" height="18.58"/>
	<rect x="371.4" y="377.88" class="st11" width="28.23" height="18.58"/>
	<rect x="399.63" y="377.88" class="st11" width="28.23" height="18.58"/>
	<rect x="427.86" y="377.88" class="st11" width="28.23" height="18.58"/>
	<rect x="456.09" y="377.88" class="st11" width="28.23" height="18.58"/>
	<rect x="484.32" y="359.3" class="st11" width="28.23" height="18.58"/>
	<rect x="512.54" y="359.3" class="st11" width="28.23" height="18.58"/>
	<rect x="484.32" y="377.88" class="st11" width="28.23" height="18.58"/>
	<rect x="512.54" y="377.88" class="st11" width="28.23" height="18.58"/>
	<rect x="540.77" y="377.88" class="st11" width="28.23" height="18.58"/>
	<rect x="569" y="377.88" class="st11" width="28.23" height="18.58"/>
	<rect x="371.4" y="359.3" class="st11" width="28.23" height="18.58"/>
	<rect x="399.63" y="359.3" class="st11" width="28.23" height="18.58"/>
	<rect x="427.86" y="359.3" class="st11" width="28.23" height="18.58"/>
	<rect x="456.09" y="359.3" class="st11" width="28.23" height="18.58"/>
	<rect x="259.8" y="377.88" class="st8" width="28.23" height="18.58"/>
	<rect x="288.02" y="377.88" class="st8" width="28.23" height="18.58"/>
	<rect x="316.25" y="377.88" class="st8" width="28.23" height="18.58"/>
	<rect x="259.8" y="359.3" class="st8" width="28.23" height="18.58"/>
	<rect x="231.49" y="377.88" class="st8" width="28.23" height="18.58"/>
	<rect x="231.49" y="359.3" class="st8" width="28.23" height="18.58"/>
	<rect x="288.02" y="359.3" class="st8" width="28.23" height="18.58"/>
	<rect x="316.25" y="359.3" class="st8" width="28.23" height="18.58"/>
	<rect x="259.8" y="334.96" class="st8" width="28.23" height="18.58"/>
	<rect x="288.02" y="334.96" class="st8" width="28.23" height="18.58"/>
	<rect x="316.25" y="334.96" class="st8" width="28.23" height="18.58"/>
	<rect x="259.8" y="316.38" class="st8" width="28.23" height="18.58"/>
	<rect x="231.49" y="334.96" class="st8" width="28.23" height="18.58"/>
	<rect x="231.49" y="316.38" class="st8" width="28.23" height="18.58"/>
	<rect x="288.02" y="316.38" class="st8" width="28.23" height="18.58"/>
	<rect x="316.25" y="316.38" class="st8" width="28.23" height="18.58"/>
	<rect x="259.8" y="290.69" class="st8" width="28.23" height="18.58"/>
	<rect x="288.02" y="290.69" class="st8" width="28.23" height="18.58"/>
	<rect x="316.25" y="290.69" class="st8" width="28.23" height="18.58"/>
	<rect x="259.8" y="272.11" class="st8" width="28.23" height="18.58"/>
	<rect x="231.49" y="290.69" class="st8" width="28.23" height="18.58"/>
	<rect x="231.49" y="272.11" class="st8" width="28.23" height="18.58"/>
	<rect x="288.02" y="272.11" class="st8" width="28.23" height="18.58"/>
	<rect x="316.25" y="272.11" class="st8" width="28.23" height="18.58"/>
	<rect x="259.8" y="246.41" class="st8" width="28.23" height="18.58"/>
	<rect x="288.02" y="246.41" class="st8" width="28.23" height="18.58"/>
	<rect x="316.25" y="246.41" class="st8" width="28.23" height="18.58"/>
	<rect x="259.8" y="227.83" class="st8" width="28.23" height="18.58"/>
	<rect x="231.49" y="246.41" class="st8" width="28.23" height="18.58"/>
	<rect x="231.49" y="227.83" class="st8" width="28.23" height="18.58"/>
	<rect x="288.02" y="227.83" class="st8" width="28.23" height="18.58"/>
	<rect x="316.25" y="227.83" class="st8" width="28.23" height="18.58"/>
	<rect x="259.8" y="199.74" class="st12" width="28.23" height="18.58"/>
	<rect x="288.02" y="199.74" class="st12" width="28.23" height="18.58"/>
	<rect x="316.25" y="199.74" class="st12" width="28.23" height="18.58"/>
	<rect x="259.8" y="181.16" class="st12" width="28.23" height="18.58"/>
	<rect x="231.49" y="199.74" class="st12" width="28.23" height="18.58"/>
	<rect x="231.49" y="181.16" class="st12" width="28.23" height="18.58"/>
	<rect x="288.02" y="181.16" class="st12" width="28.23" height="18.58"/>
	<rect x="316.25" y="181.16" class="st12" width="28.23" height="18.58"/>
	<rect x="540.77" y="359.3" class="st11" width="28.23" height="18.58"/>
	<rect x="569" y="359.3" class="st11" width="28.23" height="18.58"/>
	<rect x="610.24" y="377.88" class="st13" width="28.23" height="18.58"/>
	<rect x="638.47" y="377.88" class="st13" width="28.23" height="18.58"/>
	<rect x="666.7" y="377.88" class="st13" width="28.23" height="18.58"/>
	<rect x="694.93" y="377.88" class="st10" width="28.23" height="18.58"/>
	<rect x="694.93" y="359.3" class="st10" width="28.23" height="18.58"/>
	<rect x="723.16" y="359.3" class="st10" width="28.23" height="18.58"/>
	<rect x="751.39" y="359.3" class="st10" width="28.23" height="18.58"/>
	<rect x="723.16" y="377.88" class="st10" width="28.23" height="18.58"/>
	<rect x="751.39" y="377.88" class="st10" width="28.23" height="18.58"/>
	<rect x="779.62" y="377.88" class="st10" width="28.23" height="18.58"/>
	<rect x="610.24" y="359.3" class="st13" width="28.23" height="18.58"/>
	<rect x="638.47" y="359.3" class="st13" width="28.23" height="18.58"/>
	<rect x="666.7" y="359.3" class="st13" width="28.23" height="18.58"/>
	<rect x="840.31" y="377.88" class="st13" width="28.23" height="18.58"/>
	<rect x="868.54" y="377.88" class="st13" width="28.23" height="18.58"/>
	<rect x="896.77" y="377.88" class="st10" width="28.23" height="18.58"/>
	<rect x="896.77" y="359.3" class="st10" width="28.23" height="18.58"/>
	<rect x="925" y="359.3" class="st10" width="28.23" height="18.58"/>
	<rect x="925" y="377.88" class="st10" width="28.23" height="18.58"/>
	<rect x="896.77" y="334.96" class="st10" width="28.23" height="18.58"/>
	<rect x="896.77" y="316.38" class="st10" width="28.23" height="18.58"/>
	<rect x="925" y="316.38" class="st10" width="28.23" height="18.58"/>
	<rect x="925" y="334.96" class="st10" width="28.23" height="18.58"/>
	<rect x="840.31" y="334.96" class="st10" width="28.23" height="18.58"/>
	<rect x="840.31" y="316.38" class="st10" width="28.23" height="18.58"/>
	<rect x="868.54" y="316.38" class="st10" width="28.23" height="18.58"/>
	<rect x="868.54" y="334.96" class="st10" width="28.23" height="18.58"/>
	<rect x="896.77" y="290.67" class="st10" width="28.23" height="18.58"/>
	<rect x="896.77" y="272.1" class="st10" width="28.23" height="18.58"/>
	<rect x="925" y="272.1" class="st10" width="28.23" height="18.58"/>
	<rect x="925" y="290.67" class="st10" width="28.23" height="18.58"/>
	<rect x="840.31" y="290.67" class="st10" width="28.23" height="18.58"/>
	<rect x="840.31" y="272.1" class="st10" width="28.23" height="18.58"/>
	<rect x="868.54" y="272.1" class="st10" width="28.23" height="18.58"/>
	<rect x="868.54" y="290.67" class="st10" width="28.23" height="18.58"/>
	<rect x="896.77" y="246.41" class="st10" width="28.23" height="18.58"/>
	<rect x="896.77" y="227.83" class="st10" width="28.23" height="18.58"/>
	<rect x="925" y="227.83" class="st10" width="28.23" height="18.58"/>
	<rect x="925" y="246.41" class="st10" width="28.23" height="18.58"/>
	<rect x="840.31" y="246.41" class="st10" width="28.23" height="18.58"/>
	<rect x="840.31" y="227.83" class="st10" width="28.23" height="18.58"/>
	<rect x="868.54" y="227.83" class="st10" width="28.23" height="18.58"/>
	<rect x="868.54" y="246.41" class="st10" width="28.23" height="18.58"/>
	<rect x="840.31" y="359.3" class="st13" width="28.23" height="18.58"/>
	<rect x="868.54" y="359.3" class="st13" width="28.23" height="18.58"/>
	<rect x="779.62" y="359.3" class="st10" width="28.23" height="18.58"/>
	<rect x="694.93" y="334.96" class="st10" width="28.23" height="18.58"/>
	<rect x="694.93" y="316.38" class="st10" width="28.23" height="18.58"/>
	<rect x="723.16" y="316.38" class="st10" width="28.23" height="18.58"/>
	<rect x="751.39" y="316.38" class="st10" width="28.23" height="18.58"/>
	<rect x="723.16" y="334.96" class="st10" width="28.23" height="18.58"/>
	<rect x="751.39" y="334.96" class="st10" width="28.23" height="18.58"/>
	<rect x="610.24" y="334.96" class="st10" width="28.23" height="18.58"/>
	<rect x="610.24" y="316.38" class="st10" width="28.23" height="18.58"/>
	<rect x="638.47" y="316.38" class="st10" width="28.23" height="18.58"/>
	<rect x="666.7" y="316.38" class="st10" width="28.23" height="18.58"/>
	<rect x="638.47" y="334.96" class="st10" width="28.23" height="18.58"/>
	<rect x="666.7" y="334.96" class="st10" width="28.23" height="18.58"/>
	<rect x="779.62" y="334.96" class="st10" width="28.23" height="18.58"/>
	<rect x="779.62" y="316.38" class="st10" width="28.23" height="18.58"/>
	<rect x="694.93" y="290.67" class="st10" width="28.23" height="18.58"/>
	<rect x="694.93" y="272.1" class="st10" width="28.23" height="18.58"/>
	<rect x="723.16" y="272.1" class="st10" width="28.23" height="18.58"/>
	<rect x="751.39" y="272.1" class="st10" width="28.23" height="18.58"/>
	<rect x="723.16" y="290.67" class="st10" width="28.23" height="18.58"/>
	<rect x="751.39" y="290.67" class="st10" width="28.23" height="18.58"/>
	<rect x="610.24" y="290.67" class="st10" width="28.23" height="18.58"/>
	<rect x="610.24" y="272.1" class="st10" width="28.23" height="18.58"/>
	<rect x="638.47" y="272.1" class="st10" width="28.23" height="18.58"/>
	<rect x="666.7" y="272.1" class="st10" width="28.23" height="18.58"/>
	<rect x="638.47" y="290.67" class="st10" width="28.23" height="18.58"/>
	<rect x="666.7" y="290.67" class="st10" width="28.23" height="18.58"/>
	<rect x="779.62" y="290.67" class="st10" width="28.23" height="18.58"/>
	<rect x="779.62" y="272.1" class="st10" width="28.23" height="18.58"/>
	<rect x="694.93" y="246.41" class="st10" width="28.23" height="18.58"/>
	<rect x="694.93" y="227.83" class="st10" width="28.23" height="18.58"/>
	<rect x="723.16" y="227.83" class="st10" width="28.23" height="18.58"/>
	<rect x="751.39" y="227.83" class="st10" width="28.23" height="18.58"/>
	<rect x="723.16" y="246.41" class="st10" width="28.23" height="18.58"/>
	<rect x="751.39" y="246.41" class="st10" width="28.23" height="18.58"/>
	<rect x="610.24" y="246.41" class="st10" width="28.23" height="18.58"/>
	<rect x="610.24" y="227.83" class="st10" width="28.23" height="18.58"/>
	<rect x="638.47" y="227.83" class="st10" width="28.23" height="18.58"/>
	<rect x="666.7" y="227.83" class="st10" width="28.23" height="18.58"/>
	<rect x="638.47" y="246.41" class="st10" width="28.23" height="18.58"/>
	<rect x="666.7" y="246.41" class="st10" width="28.23" height="18.58"/>
	<rect x="779.62" y="246.41" class="st10" width="28.23" height="18.58"/>
	<rect x="779.62" y="227.83" class="st10" width="28.23" height="18.58"/>
	<rect x="694.93" y="199.74" class="st14" width="28.23" height="18.58"/>
	<rect x="694.93" y="181.16" class="st14" width="28.23" height="18.58"/>
	<rect x="723.16" y="181.16" class="st14" width="28.23" height="18.58"/>
	<rect x="751.39" y="181.16" class="st14" width="28.23" height="18.58"/>
	<rect x="723.16" y="199.74" class="st14" width="28.23" height="18.58"/>
	<rect x="751.39" y="199.74" class="st14" width="28.23" height="18.58"/>
	<rect x="610.24" y="199.74" class="st14" width="28.23" height="18.58"/>
	<rect x="610.24" y="181.16" class="st14" width="28.23" height="18.58"/>
	<rect x="638.47" y="181.16" class="st14" width="28.23" height="18.58"/>
	<rect x="666.7" y="181.16" class="st14" width="28.23" height="18.58"/>
	<rect x="638.47" y="199.74" class="st14" width="28.23" height="18.58"/>
	<rect x="666.7" y="199.74" class="st14" width="28.23" height="18.58"/>
	<rect x="779.62" y="199.74" class="st14" width="28.23" height="18.58"/>
	<rect x="779.62" y="181.16" class="st14" width="28.23" height="18.58"/>
</g>
<g id="Layer_2" class="st15">
	<rect x="932.64" y="134.93" class="st16" width="12.86" height="19.29"/>
	<rect x="948.29" y="134.93" class="st16" width="12.86" height="19.29"/>
	<rect x="1063.18" y="134.93" class="st17" width="12.86" height="52.29"/>
	<rect x="1047.07" y="134.93" class="st17" width="12.86" height="61.71"/>
	<rect x="1031.21" y="134.93" class="st17" width="12.86" height="61.71"/>
	<rect x="1014.07" y="134.93" class="st17" width="12.86" height="61.71"/>
	<rect x="998.43" y="134.93" class="st17" width="12.86" height="61.71"/>
	<rect x="948.29" y="154.21" class="st17" width="12.86" height="42.43"/>
	<rect x="932.64" y="154.21" class="st17" width="12.86" height="42.43"/>
	<rect x="915.5" y="134.93" class="st17" width="12.86" height="61.71"/>
	<rect x="981.29" y="134.93" class="st17" width="12.86" height="57.64"/>
	<rect x="965.43" y="134.93" class="st17" width="12.86" height="57.64"/>
</g>
<g id="Layer_3" class="st15">
	<rect x="1047.48" y="208" class="st18" width="12.86" height="58.71"/>
	<rect x="1062.82" y="216.79" class="st19" width="12.86" height="49.93"/>
	<rect x="1031.21" y="208" class="st18" width="12.86" height="58.71"/>
	<rect x="1014.07" y="208" class="st18" width="12.86" height="58.71"/>
	<rect x="998.43" y="208" class="st18" width="12.86" height="58.71"/>
	<rect x="948.71" y="208" class="st20" width="12.86" height="58.71"/>
	<rect x="932.11" y="208" class="st21" width="12.86" height="58.71"/>
	<rect x="915.5" y="208" class="st21" width="12.86" height="58.71"/>
	<rect x="981.29" y="212.07" class="st18" width="12.86" height="54.64"/>
	<rect x="965.54" y="212.07" class="st22" width="12.86" height="54.64"/>
</g>
<g id="Layer_4" class="st15">
	<rect x="863.21" y="208" class="st23" width="12.86" height="59.14"/>
	<rect x="830.86" y="208" class="st24" width="12.86" height="59.14"/>
	<rect x="815" y="208" class="st24" width="12.86" height="59.14"/>
	<rect x="732.5" y="208" class="st24" width="12.86" height="59.14"/>
	<rect x="714.93" y="208" class="st24" width="12.86" height="59.14"/>
	<rect x="798.29" y="211.89" class="st24" width="12.86" height="55.26"/>
	<rect x="846.71" y="208" class="st25" width="6.64" height="59.14"/>
	<rect x="853.36" y="208" class="st26" width="6.64" height="59.14"/>
	<rect x="781.57" y="211.89" class="st26" width="6.64" height="55.26"/>
	<rect x="788.21" y="211.89" class="st24" width="6.64" height="55.26"/>
	<rect x="764.32" y="208" class="st27" width="6.64" height="59.14"/>
	<rect x="771.07" y="208" class="st24" width="6.64" height="59.14"/>
	<rect x="747.29" y="208" class="st24" width="6.64" height="59.14"/>
	<rect x="753.93" y="208" class="st21" width="6.64" height="59.14"/>
</g>
<g id="Layer_5" class="st15">
	<rect x="732.5" y="153.86" class="st24" width="12.86" height="42.86"/>
	<rect x="732.5" y="134.71" class="st28" width="12.86" height="19.14"/>
	<rect x="747.29" y="134.71" class="st28" width="13.71" height="19.14"/>
	<rect x="798.29" y="134.71" class="st29" width="12.86" height="57.43"/>
	<rect x="714.93" y="134.71" class="st29" width="6.86" height="62"/>
	<rect x="721.79" y="134.71" class="st26" width="6.86" height="62"/>
	<rect x="747.29" y="153.86" class="st27" width="6.86" height="42.86"/>
	<rect x="754.14" y="153.86" class="st29" width="6.86" height="42.86"/>
	<rect x="764.21" y="134.71" class="st27" width="6.86" height="62"/>
	<rect x="771.07" y="134.71" class="st29" width="6.86" height="62"/>
	<rect x="781.57" y="134.71" class="st24" width="6.86" height="57.43"/>
	<rect x="788.43" y="134.71" class="st26" width="6.86" height="57.43"/>
	<rect x="814.57" y="134.71" class="st26" width="6.86" height="62"/>
	<rect x="821.43" y="134.71" class="st24" width="6.86" height="62"/>
	<rect x="830.43" y="134.71" class="st29" width="6.86" height="62"/>
	<rect x="837.29" y="134.71" class="st24" width="6.86" height="62"/>
	<rect x="846.5" y="134.71" class="st26" width="6.86" height="62"/>
	<rect x="853.36" y="134.71" class="st25" width="6.86" height="62"/>
	<rect x="862.79" y="134.71" class="st30" width="6.86" height="62"/>
	<rect x="869.64" y="134.71" class="st23" width="6.86" height="62"/>
</g>
<g id="Layer_6" class="st15">
	<rect x="664.57" y="134.93" class="st31" width="12.86" height="61.79"/>
	<rect x="648.5" y="134.93" class="st31" width="12.86" height="61.79"/>
	<rect x="633.29" y="134.93" class="st31" width="12.86" height="61.79"/>
	<rect x="615.29" y="134.93" class="st32" width="12.86" height="61.79"/>
	<rect x="600.26" y="134.93" class="st32" width="12.86" height="61.79"/>
	<rect x="583.9" y="134.93" class="st32" width="12.86" height="61.79"/>
	<rect x="567.68" y="134.93" class="st32" width="12.86" height="61.79"/>
	<rect x="519.4" y="134.93" class="st33" width="12.86" height="61.79"/>
	<rect x="551.54" y="154.14" class="st33" width="12.86" height="42.57"/>
	<rect x="536.33" y="154.07" class="st33" width="12.86" height="42.57"/>
	<rect x="551.54" y="134.96" class="st28" width="12.86" height="19.18"/>
	<rect x="536.33" y="134.93" class="st28" width="12.86" height="19.18"/>
</g>
<g id="Layer_7" class="st15">
	<rect x="519.4" y="207.57" class="st31" width="12.86" height="59.27"/>
	<rect x="535.9" y="207.57" class="st31" width="12.86" height="59.27"/>
	<rect x="551.68" y="207.57" class="st31" width="12.86" height="59.27"/>
	<rect x="568.83" y="207.57" class="st31" width="12.86" height="59.27"/>
	<rect x="583.9" y="211.86" class="st31" width="12.86" height="54.98"/>
	<rect x="600.26" y="212.14" class="st31" width="12.86" height="54.98"/>
	<rect x="616.54" y="207.86" class="st31" width="12.86" height="59.27"/>
	<rect x="648.5" y="207.86" class="st31" width="12.86" height="59.27"/>
	<rect x="664.96" y="207.86" class="st31" width="12.86" height="59.27"/>
</g>
<g id="Layer_8" class="st15">
	<rect x="449.68" y="185.14" class="st34" width="12.86" height="86.57"/>
	<rect x="433.4" y="192.96" class="st35" width="12.86" height="78.75"/>
	<rect x="350.9" y="228.43" class="st36" width="12.86" height="43.29"/>
	<rect x="350.9" y="185.14" class="st37" width="12.86" height="43.29"/>
	<rect x="335.33" y="185.14" class="st36" width="12.86" height="86.57"/>
	<rect x="320.04" y="185.14" class="st36" width="12.86" height="86.57"/>
	<rect x="296.63" y="185.63" class="st34" width="12.86" height="86.09"/>
	<rect x="280.13" y="185.63" class="st34" width="12.86" height="86.09"/>
	<rect x="264.7" y="185.63" class="st34" width="12.86" height="86.09"/>
	<rect x="249.97" y="185.14" class="st38" width="12.86" height="86.57"/>
	<rect x="220.61" y="185.14" class="st38" width="12.86" height="86.57"/>
	<rect x="204.97" y="185.14" class="st38" width="12.86" height="86.57"/>
	<rect x="188.9" y="185.14" class="st38" width="12.86" height="86.57"/>
	<rect x="173.47" y="185.14" class="st38" width="12.86" height="86.57"/>
	<rect x="139.36" y="185.14" class="st39" width="15.9" height="86.57"/>
	<rect x="237.5" y="185.14" class="st38" width="9.04" height="86.57"/>
	<rect x="161" y="185.14" class="st38" width="9.04" height="86.57"/>
	<rect x="418.26" y="231.34" class="st34" width="12.86" height="40.37"/>
	<rect x="418.26" y="192.05" class="st35" width="12.86" height="39.3"/>
</g>
<g id="Layer_9" class="st15">
	<rect x="297.11" y="90.86" class="st34" width="12.86" height="86.71"/>
	<rect x="320.04" y="90.86" class="st34" width="12.86" height="86.71"/>
	<rect x="335.33" y="108.16" class="st34" width="12.86" height="69.41"/>
	<rect x="350.9" y="108.16" class="st34" width="12.86" height="69.41"/>
	<rect x="335.33" y="90.86" class="st28" width="12.86" height="17.36"/>
	<rect x="350.9" y="90.86" class="st28" width="12.86" height="17.36"/>
	<rect x="367.18" y="90.86" class="st34" width="12.86" height="86.71"/>
	<rect x="402.97" y="90.86" class="st34" width="12.86" height="86.71"/>
	<rect x="449.68" y="90.86" class="st40" width="12.86" height="74.29"/>
	<rect x="433.61" y="90.86" class="st40" width="12.86" height="78.1"/>
	<rect x="418.29" y="90.86" class="st34" width="12.86" height="78.1"/>
	<rect x="280.61" y="90.86" class="st41" width="12.86" height="86.71"/>
	<rect x="265.18" y="90.86" class="st41" width="12.86" height="86.71"/>
	<rect x="249.97" y="90.86" class="st41" width="12.86" height="86.71"/>
	<rect x="220.61" y="90.86" class="st41" width="12.86" height="86.71"/>
	<rect x="204.97" y="90.86" class="st41" width="12.86" height="86.71"/>
	<rect x="188.9" y="90.86" class="st41" width="12.86" height="86.71"/>
	<rect x="173.47" y="90.86" class="st41" width="12.86" height="86.71"/>
	<rect x="139.36" y="90.86" class="st41" width="15.9" height="86.71"/>
	<rect x="237.5" y="90.86" class="st41" width="9.04" height="86.71"/>
	<rect x="161" y="90.86" class="st41" width="9.04" height="86.71"/>
	<rect x="130.89" y="164.82" class="st42" width="15.75" height="12.75"/>
	<rect x="130.89" y="185.14" class="st42" width="15.75" height="11.93"/>
</g>
<g id="Layer_11">
	<polygon class="st43" points="28.32,102.57 28.32,28.57 251.7,28.57 219.99,102.57 	"/>
	<text transform="matrix(1 0 0 1 69.6588 58.5673)"><tspan x="0" y="0" class="st44 st45 st46">GEDUNG III</tspan><tspan x="0" y="28.8" class="st44 st45 st46">LANTAI I</tspan></text>
	<rect x="0" class="st47" width="1190.55" height="476.57"/>
	<rect x="311.57" y="28.57" class="st0" width="349.71" height="17.02"/>
	<rect x="311.57" y="62.2" class="st0" width="174.86" height="17.02"/>
	<rect x="311.57" y="79.22" class="st0" width="174.86" height="17.02"/>
	<rect x="311.57" y="96.24" class="st0" width="174.86" height="17.02"/>
	<rect x="486.43" y="45.21" class="st0" width="174.86" height="17.02"/>
	<rect x="486.43" y="61.93" class="st0" width="174.86" height="17.02"/>
	<text transform="matrix(1 0 0 1 442.4643 42.6388)" class="st45 st48">KETERANGAN</text>
	<text transform="matrix(1 0 0 1 345.6071 75.7439)" class="st45 st48">TEMBAKAU</text>
	<rect x="314.86" y="64.83" class="st11" width="19.43" height="12"/>
	<rect x="311.57" y="45.21" class="st0" width="174.86" height="17.02"/>
	<text transform="matrix(1 0 0 1 345.6071 58.7589)" class="st45 st48">CRAKEN</text>
	<rect x="314.86" y="47.84" class="st8" width="19.43" height="12"/>
	<text transform="matrix(1 0 0 1 345.6071 92.6476)" class="st45 st48">BAHAN BANGUNAN</text>
	<rect x="314.86" y="81.73" class="st10" width="19.43" height="12"/>
	<text transform="matrix(1.0241 0 0 1 345.6074 108.9775)" class="st45 st49">GILINGAN BASAH</text>
	<rect x="314.86" y="98.34" class="st14" width="19.43" height="12"/>
	<text transform="matrix(1 0 0 1 520.4643 58.6397)" class="st45 st48">ONDERDIL</text>
	<rect x="489.71" y="47.73" class="st8" width="19.43" height="12"/>
	<text transform="matrix(1 0 0 1 520.4643 75.3589)" class="st45 st48">SUKU CADANG</text>
	<rect x="489.71" y="64.44" class="st9" width="19.43" height="12"/>
	<rect x="486.43" y="78.65" class="st0" width="174.86" height="17.02"/>
	<text transform="matrix(1 0 0 1 520.4643 92.0781)" class="st45 st48">AKSESORIS MOBIL</text>
	<rect x="489.71" y="81.16" class="st7" width="19.43" height="12"/>
	<polygon class="st50" points="1080.27,81.71 1093.04,47.54 1105.71,81.71 1092.99,65.56 	"/>
	<text transform="matrix(1 0 0 1 1084.8721 44.7206)" class="st45 st51">U</text>
</g>
</svg>
