<?xml version="1.0" encoding="utf-8"?>
<!-- Generator: Adobe Illustrator 24.0.1, SVG Export Plug-In . SVG Version: 6.00 Build 0)  -->
<svg version="1.1" xmlns="http://www.w3.org/2000/svg" xmlns:xlink="http://www.w3.org/1999/xlink" x="0px" y="0px"
	 viewBox="0 0 1190.55 525" style="enable-background:new 0 0 1190.55 525;" xml:space="preserve">
<style type="text/css">
	.st0{display:none;fill:#9A9899;}
	.st1{display:none;fill:#DE9086;}
	.st2{display:none;fill:#507B57;}
	.st3{display:none;fill:#D24F43;}
	.st4{fill:#FFFFFF;stroke:#000000;stroke-miterlimit:10;}
	.st5{display:none;}
	.st6{display:inline;fill:#6497B9;}
	.st7{display:inline;fill:#CC4C56;}
	.st8{display:inline;fill:#653122;}
	.st9{display:inline;fill:#6C6046;}
	.st10{display:inline;fill:#CE4279;}
	.st11{display:inline;fill:#8F4563;}
	.st12{display:inline;fill:#9D7356;}
	.st13{display:inline;fill:#74AE89;}
	.st14{display:inline;fill:#574332;}
	.st15{display:inline;fill:#6A7995;}
	.st16{display:inline;fill:#6C6A71;}
	.st17{display:inline;fill:#5F6E56;}
	.st18{display:inline;fill:#4F84B2;}
	.st19{display:inline;fill:#C94877;}
	.st20{display:inline;fill:#6D747A;}
	.st21{display:inline;fill:#E2E1A9;}
	.st22{display:inline;fill:#829F7A;}
	.st23{display:inline;fill:#763148;}
	.st24{display:inline;fill:#727048;}
	.st25{display:inline;fill:#A9A137;}
	.st26{display:inline;fill:#D9894D;}
	.st27{display:inline;fill:#CFA62B;}
	.st28{display:inline;fill:#897B4E;}
	.st29{display:inline;fill:#D3CC74;}
	.st30{display:inline;fill:#C33266;}
	.st31{display:inline;fill:#ABAB53;}
	.st32{display:inline;fill:#436139;}
	.st33{fill:#84856C;}
	.st34{fill:#FFFFFF;}
	.st35{font-family:'MyriadPro-Bold';}
	.st36{font-size:24px;}
	.st37{fill:none;stroke:#000000;stroke-miterlimit:10;}
	.st38{fill:#F26522;stroke:#000000;stroke-miterlimit:10;}
	.st39{fill:#7F3F98;stroke:#000000;stroke-miterlimit:10;}
	.st40{fill:#262262;stroke:#000000;stroke-miterlimit:10;}
	.st41{fill:#FFDE17;stroke:#000000;stroke-miterlimit:10;}
	.st42{fill:#00A14B;stroke:#000000;stroke-miterlimit:10;}
	.st43{fill:#00AEEF;stroke:#000000;stroke-miterlimit:10;}
	.st44{fill:#00A79D;stroke:#000000;stroke-miterlimit:10;}
	.st45{fill:#8DC63F;stroke:#000000;stroke-miterlimit:10;}
	.st46{fill:#D24F43;stroke:#000000;stroke-miterlimit:10;}
	.st47{fill:#34302B;}
	.st48{font-size:14px;}
	.st49{stroke:#000000;stroke-miterlimit:10;}
	.st50{font-size:23.6589px;}
</style>
<g id="Layer_1">
	<rect x="105.43" y="66.43" class="st0" width="381.34" height="225.16"/>
	<rect x="500.38" y="124.43" class="st0" width="600.2" height="167.16"/>
	<rect x="1088.71" y="155.14" class="st1" width="27.21" height="90.64"/>
	<rect x="1082.43" y="171.96" class="st2" width="6.29" height="60.21"/>
	<rect x="993.07" y="121.07" class="st3" width="36.43" height="11.04"/>
	<rect x="768.29" y="121.07" class="st3" width="36.43" height="11.04"/>
	<rect x="575.26" y="121.07" class="st3" width="36.43" height="11.04"/>
	<rect x="282.61" y="73" class="st3" width="36.43" height="10.68"/>
	<path class="st4" d="M130.51,94.79"/>
</g>
<g id="Layer_10">
</g>
<g id="Layer_2" class="st5">
	<rect x="932.64" y="134.79" class="st6" width="12.86" height="19.29"/>
	<rect x="948.29" y="134.79" class="st6" width="12.86" height="19.29"/>
	<rect x="1063.18" y="134.79" class="st7" width="12.86" height="52.29"/>
	<rect x="1047.07" y="134.79" class="st7" width="12.86" height="61.71"/>
	<rect x="1031.21" y="134.79" class="st7" width="12.86" height="61.71"/>
	<rect x="1014.07" y="134.79" class="st7" width="12.86" height="61.71"/>
	<rect x="998.43" y="134.79" class="st7" width="12.86" height="61.71"/>
	<rect x="948.29" y="154.07" class="st7" width="12.86" height="42.43"/>
	<rect x="932.64" y="154.07" class="st7" width="12.86" height="42.43"/>
	<rect x="915.5" y="134.79" class="st7" width="12.86" height="61.71"/>
	<rect x="981.29" y="134.79" class="st7" width="12.86" height="57.64"/>
	<rect x="965.43" y="134.79" class="st7" width="12.86" height="57.64"/>
</g>
<g id="Layer_3" class="st5">
	<rect x="1047.48" y="207.86" class="st8" width="12.86" height="58.71"/>
	<rect x="1062.82" y="216.64" class="st9" width="12.86" height="49.93"/>
	<rect x="1031.21" y="207.86" class="st8" width="12.86" height="58.71"/>
	<rect x="1014.07" y="207.86" class="st8" width="12.86" height="58.71"/>
	<rect x="998.43" y="207.86" class="st8" width="12.86" height="58.71"/>
	<rect x="948.71" y="207.86" class="st10" width="12.86" height="58.71"/>
	<rect x="932.11" y="207.86" class="st11" width="12.86" height="58.71"/>
	<rect x="915.5" y="207.86" class="st11" width="12.86" height="58.71"/>
	<rect x="981.29" y="211.93" class="st8" width="12.86" height="54.64"/>
	<rect x="965.54" y="211.93" class="st12" width="12.86" height="54.64"/>
</g>
<g id="Layer_4" class="st5">
	<rect x="863.21" y="207.86" class="st13" width="12.86" height="59.14"/>
	<rect x="830.86" y="207.86" class="st14" width="12.86" height="59.14"/>
	<rect x="815" y="207.86" class="st14" width="12.86" height="59.14"/>
	<rect x="732.5" y="207.86" class="st14" width="12.86" height="59.14"/>
	<rect x="714.93" y="207.86" class="st14" width="12.86" height="59.14"/>
	<rect x="798.29" y="211.74" class="st14" width="12.86" height="55.26"/>
	<rect x="846.71" y="207.86" class="st15" width="6.64" height="59.14"/>
	<rect x="853.36" y="207.86" class="st16" width="6.64" height="59.14"/>
	<rect x="781.57" y="211.74" class="st16" width="6.64" height="55.26"/>
	<rect x="788.21" y="211.74" class="st14" width="6.64" height="55.26"/>
	<rect x="764.32" y="207.86" class="st17" width="6.64" height="59.14"/>
	<rect x="771.07" y="207.86" class="st14" width="6.64" height="59.14"/>
	<rect x="747.29" y="207.86" class="st14" width="6.64" height="59.14"/>
	<rect x="753.93" y="207.86" class="st11" width="6.64" height="59.14"/>
</g>
<g id="Layer_5" class="st5">
	<rect x="732.5" y="153.71" class="st14" width="12.86" height="42.86"/>
	<rect x="732.5" y="134.57" class="st18" width="12.86" height="19.14"/>
	<rect x="747.29" y="134.57" class="st18" width="13.71" height="19.14"/>
	<rect x="798.29" y="134.57" class="st19" width="12.86" height="57.43"/>
	<rect x="714.93" y="134.57" class="st19" width="6.86" height="62"/>
	<rect x="721.79" y="134.57" class="st16" width="6.86" height="62"/>
	<rect x="747.29" y="153.71" class="st17" width="6.86" height="42.86"/>
	<rect x="754.14" y="153.71" class="st19" width="6.86" height="42.86"/>
	<rect x="764.21" y="134.57" class="st17" width="6.86" height="62"/>
	<rect x="771.07" y="134.57" class="st19" width="6.86" height="62"/>
	<rect x="781.57" y="134.57" class="st14" width="6.86" height="57.43"/>
	<rect x="788.43" y="134.57" class="st16" width="6.86" height="57.43"/>
	<rect x="814.57" y="134.57" class="st16" width="6.86" height="62"/>
	<rect x="821.43" y="134.57" class="st14" width="6.86" height="62"/>
	<rect x="830.43" y="134.57" class="st19" width="6.86" height="62"/>
	<rect x="837.29" y="134.57" class="st14" width="6.86" height="62"/>
	<rect x="846.5" y="134.57" class="st16" width="6.86" height="62"/>
	<rect x="853.36" y="134.57" class="st15" width="6.86" height="62"/>
	<rect x="862.79" y="134.57" class="st20" width="6.86" height="62"/>
	<rect x="869.64" y="134.57" class="st13" width="6.86" height="62"/>
</g>
<g id="Layer_6" class="st5">
	<rect x="664.57" y="134.79" class="st21" width="12.86" height="61.79"/>
	<rect x="648.5" y="134.79" class="st21" width="12.86" height="61.79"/>
	<rect x="633.29" y="134.79" class="st21" width="12.86" height="61.79"/>
	<rect x="615.29" y="134.79" class="st22" width="12.86" height="61.79"/>
	<rect x="600.26" y="134.79" class="st22" width="12.86" height="61.79"/>
	<rect x="583.9" y="134.79" class="st22" width="12.86" height="61.79"/>
	<rect x="567.68" y="134.79" class="st22" width="12.86" height="61.79"/>
	<rect x="519.4" y="134.79" class="st23" width="12.86" height="61.79"/>
	<rect x="551.54" y="154" class="st23" width="12.86" height="42.57"/>
	<rect x="536.33" y="153.93" class="st23" width="12.86" height="42.57"/>
	<rect x="551.54" y="134.82" class="st18" width="12.86" height="19.18"/>
	<rect x="536.33" y="134.79" class="st18" width="12.86" height="19.18"/>
</g>
<g id="Layer_7" class="st5">
	<rect x="519.4" y="207.43" class="st21" width="12.86" height="59.27"/>
	<rect x="535.9" y="207.43" class="st21" width="12.86" height="59.27"/>
	<rect x="551.68" y="207.43" class="st21" width="12.86" height="59.27"/>
	<rect x="568.83" y="207.43" class="st21" width="12.86" height="59.27"/>
	<rect x="583.9" y="211.71" class="st21" width="12.86" height="54.98"/>
	<rect x="600.26" y="212" class="st21" width="12.86" height="54.98"/>
	<rect x="616.54" y="207.71" class="st21" width="12.86" height="59.27"/>
	<rect x="648.5" y="207.71" class="st21" width="12.86" height="59.27"/>
	<rect x="664.96" y="207.71" class="st21" width="12.86" height="59.27"/>
</g>
<g id="Layer_8" class="st5">
	<rect x="449.68" y="185" class="st24" width="12.86" height="86.57"/>
	<rect x="433.4" y="192.82" class="st25" width="12.86" height="78.75"/>
	<rect x="350.9" y="228.29" class="st26" width="12.86" height="43.29"/>
	<rect x="350.9" y="185" class="st27" width="12.86" height="43.29"/>
	<rect x="335.33" y="185" class="st26" width="12.86" height="86.57"/>
	<rect x="320.04" y="185" class="st26" width="12.86" height="86.57"/>
	<rect x="296.63" y="185.48" class="st24" width="12.86" height="86.09"/>
	<rect x="280.13" y="185.48" class="st24" width="12.86" height="86.09"/>
	<rect x="264.7" y="185.48" class="st24" width="12.86" height="86.09"/>
	<rect x="249.97" y="185" class="st28" width="12.86" height="86.57"/>
	<rect x="220.61" y="185" class="st28" width="12.86" height="86.57"/>
	<rect x="204.97" y="185" class="st28" width="12.86" height="86.57"/>
	<rect x="188.9" y="185" class="st28" width="12.86" height="86.57"/>
	<rect x="173.47" y="185" class="st28" width="12.86" height="86.57"/>
	<rect x="139.36" y="185" class="st29" width="15.9" height="86.57"/>
	<rect x="237.5" y="185" class="st28" width="9.04" height="86.57"/>
	<rect x="161" y="185" class="st28" width="9.04" height="86.57"/>
	<rect x="418.26" y="231.2" class="st24" width="12.86" height="40.37"/>
	<rect x="418.26" y="191.9" class="st25" width="12.86" height="39.3"/>
</g>
<g id="Layer_9" class="st5">
	<rect x="297.11" y="90.71" class="st24" width="12.86" height="86.71"/>
	<rect x="320.04" y="90.71" class="st24" width="12.86" height="86.71"/>
	<rect x="335.33" y="108.01" class="st24" width="12.86" height="69.41"/>
	<rect x="350.9" y="108.01" class="st24" width="12.86" height="69.41"/>
	<rect x="335.33" y="90.71" class="st18" width="12.86" height="17.36"/>
	<rect x="350.9" y="90.71" class="st18" width="12.86" height="17.36"/>
	<rect x="367.18" y="90.71" class="st24" width="12.86" height="86.71"/>
	<rect x="402.97" y="90.71" class="st24" width="12.86" height="86.71"/>
	<rect x="449.68" y="90.71" class="st30" width="12.86" height="74.29"/>
	<rect x="433.61" y="90.71" class="st30" width="12.86" height="78.1"/>
	<rect x="418.29" y="90.71" class="st24" width="12.86" height="78.1"/>
	<rect x="280.61" y="90.71" class="st31" width="12.86" height="86.71"/>
	<rect x="265.18" y="90.71" class="st31" width="12.86" height="86.71"/>
	<rect x="249.97" y="90.71" class="st31" width="12.86" height="86.71"/>
	<rect x="220.61" y="90.71" class="st31" width="12.86" height="86.71"/>
	<rect x="204.97" y="90.71" class="st31" width="12.86" height="86.71"/>
	<rect x="188.9" y="90.71" class="st31" width="12.86" height="86.71"/>
	<rect x="173.47" y="90.71" class="st31" width="12.86" height="86.71"/>
	<rect x="139.36" y="90.71" class="st31" width="15.9" height="86.71"/>
	<rect x="237.5" y="90.71" class="st31" width="9.04" height="86.71"/>
	<rect x="161" y="90.71" class="st31" width="9.04" height="86.71"/>
	<rect x="130.89" y="164.68" class="st32" width="15.75" height="12.75"/>
	<rect x="130.89" y="185" class="st32" width="15.75" height="11.93"/>
</g>
<g id="Layer_11">
	<polygon class="st33" points="28.29,102.29 28.29,28.29 251.67,28.29 219.96,102.29 	"/>
	<text transform="matrix(1 0 0 1 69.628 58.2856)"><tspan x="0" y="0" class="st34 st35 st36">GEDUNG III</tspan><tspan x="0" y="28.8" class="st34 st35 st36">LANTAI III</tspan></text>
	<rect x="0" class="st37" width="1190.55" height="525"/>
	<rect x="206.27" y="141.78" class="st4" width="827.62" height="295.85"/>
	<rect x="556.63" y="393.42" class="st38" width="25.67" height="19.42"/>
	<rect x="582.3" y="393.42" class="st38" width="25.67" height="19.42"/>
	<rect x="607.88" y="393.52" class="st38" width="25.67" height="19.42"/>
	<rect x="633.64" y="393.42" class="st38" width="25.67" height="19.42"/>
	<rect x="659.31" y="393.42" class="st38" width="25.67" height="19.42"/>
	<rect x="684.98" y="393.42" class="st38" width="25.67" height="19.42"/>
	<rect x="710.55" y="393.52" class="st38" width="25.67" height="19.42"/>
	<rect x="736.31" y="393.42" class="st38" width="25.67" height="19.42"/>
	<rect x="556.63" y="373.91" class="st38" width="25.67" height="19.42"/>
	<rect x="582.3" y="373.91" class="st38" width="25.67" height="19.42"/>
	<rect x="607.88" y="374" class="st38" width="25.67" height="19.42"/>
	<rect x="633.64" y="373.91" class="st38" width="25.67" height="19.42"/>
	<rect x="659.31" y="373.91" class="st38" width="25.67" height="19.42"/>
	<rect x="341.48" y="403.94" class="st39" width="25.67" height="19.42"/>
	<rect x="367.05" y="404.04" class="st39" width="25.67" height="19.42"/>
	<rect x="392.81" y="403.94" class="st39" width="25.67" height="19.42"/>
	<rect x="392.81" y="384.43" class="st39" width="25.67" height="19.42"/>
	<rect x="418.48" y="403.94" class="st39" width="25.67" height="19.42"/>
	<rect x="341.48" y="384.43" class="st39" width="25.67" height="19.42"/>
	<rect x="367.05" y="384.52" class="st39" width="25.67" height="19.42"/>
	<rect x="226.14" y="403.94" class="st39" width="25.67" height="19.42"/>
	<rect x="251.72" y="404.04" class="st39" width="25.67" height="19.42"/>
	<rect x="277.48" y="403.94" class="st39" width="25.67" height="19.42"/>
	<rect x="277.48" y="384.43" class="st39" width="25.67" height="19.42"/>
	<rect x="303.15" y="403.94" class="st39" width="25.67" height="19.42"/>
	<rect x="303.15" y="384.43" class="st39" width="25.67" height="19.42"/>
	<rect x="226.14" y="384.43" class="st39" width="25.67" height="19.42"/>
	<rect x="251.72" y="384.52" class="st39" width="25.67" height="19.42"/>
	<rect x="226.14" y="270.34" class="st40" width="25.67" height="19.42"/>
	<rect x="251.72" y="270.44" class="st39" width="25.67" height="19.42"/>
	<rect x="277.48" y="270.34" class="st39" width="25.67" height="19.42"/>
	<rect x="277.48" y="250.83" class="st39" width="25.67" height="19.42"/>
	<rect x="303.15" y="270.34" class="st39" width="25.67" height="19.42"/>
	<rect x="303.15" y="250.83" class="st39" width="25.67" height="19.42"/>
	<rect x="226.14" y="250.83" class="st40" width="25.67" height="19.42"/>
	<rect x="251.72" y="250.92" class="st39" width="25.67" height="19.42"/>
	<rect x="226.14" y="360.01" class="st39" width="25.67" height="19.42"/>
	<rect x="251.72" y="360.1" class="st39" width="25.67" height="19.42"/>
	<rect x="277.48" y="360.01" class="st39" width="25.67" height="19.42"/>
	<rect x="277.48" y="340.5" class="st39" width="25.67" height="19.42"/>
	<rect x="226.14" y="340.5" class="st39" width="25.67" height="19.42"/>
	<rect x="251.72" y="340.59" class="st39" width="25.67" height="19.42"/>
	<rect x="226.14" y="316.08" class="st40" width="25.67" height="19.42"/>
	<rect x="251.72" y="316.17" class="st39" width="25.67" height="19.42"/>
	<rect x="277.48" y="316.08" class="st39" width="25.67" height="19.42"/>
	<rect x="277.48" y="296.56" class="st39" width="25.67" height="19.42"/>
	<rect x="226.14" y="296.56" class="st40" width="25.67" height="19.42"/>
	<rect x="251.72" y="296.66" class="st39" width="25.67" height="19.42"/>
	<rect x="418.48" y="384.43" class="st39" width="25.67" height="19.42"/>
	<rect x="341.48" y="270.44" class="st39" width="25.67" height="19.42"/>
	<rect x="367.05" y="270.53" class="st39" width="25.67" height="19.42"/>
	<rect x="392.81" y="270.44" class="st39" width="25.67" height="19.42"/>
	<rect x="392.81" y="250.92" class="st39" width="25.67" height="19.42"/>
	<rect x="418.48" y="270.44" class="st39" width="25.67" height="19.42"/>
	<rect x="341.48" y="250.92" class="st39" width="25.67" height="19.42"/>
	<rect x="367.05" y="251.02" class="st39" width="25.67" height="19.42"/>
	<rect x="418.48" y="250.92" class="st39" width="25.67" height="19.42"/>
	<rect x="341.48" y="226.63" class="st39" width="25.67" height="19.42"/>
	<rect x="367.05" y="226.72" class="st39" width="25.67" height="19.42"/>
	<rect x="392.81" y="226.63" class="st39" width="25.67" height="19.42"/>
	<rect x="392.81" y="207.12" class="st39" width="25.67" height="19.42"/>
	<rect x="418.48" y="226.63" class="st39" width="25.67" height="19.42"/>
	<rect x="341.48" y="207.12" class="st39" width="25.67" height="19.42"/>
	<rect x="367.05" y="207.21" class="st39" width="25.67" height="19.42"/>
	<rect x="418.48" y="207.12" class="st39" width="25.67" height="19.42"/>
	<rect x="367.05" y="358.35" class="st39" width="25.67" height="19.42"/>
	<rect x="392.81" y="358.25" class="st39" width="25.67" height="19.42"/>
	<rect x="392.81" y="338.74" class="st39" width="25.67" height="19.42"/>
	<rect x="418.48" y="358.25" class="st39" width="25.67" height="19.42"/>
	<rect x="367.05" y="338.83" class="st39" width="25.67" height="19.42"/>
	<rect x="418.48" y="338.74" class="st39" width="25.67" height="19.42"/>
	<rect x="367.05" y="314.43" class="st39" width="25.67" height="19.42"/>
	<rect x="392.81" y="314.33" class="st39" width="25.67" height="19.42"/>
	<rect x="392.81" y="294.82" class="st39" width="25.67" height="19.42"/>
	<rect x="418.48" y="314.33" class="st39" width="25.67" height="19.42"/>
	<rect x="367.05" y="294.91" class="st39" width="25.67" height="19.42"/>
	<rect x="418.48" y="294.82" class="st39" width="25.67" height="19.42"/>
	<rect x="684.98" y="373.91" class="st38" width="25.67" height="19.42"/>
	<rect x="710.55" y="374" class="st38" width="25.67" height="19.42"/>
	<rect x="736.31" y="373.91" class="st38" width="25.67" height="19.42"/>
	<rect x="556.63" y="344.95" class="st41" width="25.67" height="19.42"/>
	<rect x="582.3" y="344.95" class="st41" width="25.67" height="19.42"/>
	<rect x="607.88" y="345.04" class="st41" width="25.67" height="19.42"/>
	<rect x="633.64" y="344.95" class="st41" width="25.67" height="19.42"/>
	<rect x="659.31" y="344.95" class="st41" width="25.67" height="19.42"/>
	<rect x="684.98" y="344.95" class="st41" width="25.67" height="19.42"/>
	<rect x="710.55" y="345.04" class="st41" width="25.67" height="19.42"/>
	<rect x="736.31" y="344.95" class="st41" width="25.67" height="19.42"/>
	<rect x="556.63" y="325.44" class="st41" width="25.67" height="19.42"/>
	<rect x="582.3" y="325.44" class="st41" width="25.67" height="19.42"/>
	<rect x="607.88" y="325.53" class="st41" width="25.67" height="19.42"/>
	<rect x="633.64" y="325.44" class="st41" width="25.67" height="19.42"/>
	<rect x="659.31" y="325.44" class="st41" width="25.67" height="19.42"/>
	<rect x="684.98" y="325.44" class="st41" width="25.67" height="19.42"/>
	<rect x="710.55" y="325.53" class="st41" width="25.67" height="19.42"/>
	<rect x="736.31" y="325.44" class="st41" width="25.67" height="19.42"/>
	<rect x="556.63" y="296.66" class="st41" width="25.67" height="19.42"/>
	<rect x="582.3" y="296.66" class="st41" width="25.67" height="19.42"/>
	<rect x="607.88" y="296.75" class="st41" width="25.67" height="19.42"/>
	<rect x="633.64" y="296.66" class="st41" width="25.67" height="19.42"/>
	<rect x="659.31" y="296.66" class="st41" width="25.67" height="19.42"/>
	<rect x="684.98" y="296.66" class="st41" width="25.67" height="19.42"/>
	<rect x="710.55" y="296.75" class="st41" width="25.67" height="19.42"/>
	<rect x="736.31" y="296.66" class="st41" width="25.67" height="19.42"/>
	<rect x="556.63" y="277.14" class="st41" width="25.67" height="19.42"/>
	<rect x="582.3" y="277.14" class="st41" width="25.67" height="19.42"/>
	<rect x="607.88" y="277.24" class="st41" width="25.67" height="19.42"/>
	<rect x="633.64" y="277.14" class="st41" width="25.67" height="19.42"/>
	<rect x="659.31" y="277.14" class="st41" width="25.67" height="19.42"/>
	<rect x="684.98" y="277.14" class="st41" width="25.67" height="19.42"/>
	<rect x="710.55" y="277.24" class="st41" width="25.67" height="19.42"/>
	<rect x="736.31" y="277.14" class="st41" width="25.67" height="19.42"/>
	<rect x="556.63" y="248.23" class="st38" width="25.67" height="19.42"/>
	<rect x="582.3" y="248.23" class="st38" width="25.67" height="19.42"/>
	<rect x="607.88" y="248.32" class="st38" width="25.67" height="19.42"/>
	<rect x="633.64" y="248.23" class="st38" width="25.67" height="19.42"/>
	<rect x="659.31" y="248.23" class="st38" width="25.67" height="19.42"/>
	<rect x="684.98" y="248.23" class="st38" width="25.67" height="19.42"/>
	<rect x="710.55" y="248.32" class="st38" width="25.67" height="19.42"/>
	<rect x="736.31" y="248.23" class="st38" width="25.67" height="19.42"/>
	<rect x="556.63" y="228.71" class="st38" width="25.67" height="19.42"/>
	<rect x="582.3" y="228.71" class="st38" width="25.67" height="19.42"/>
	<rect x="607.88" y="228.81" class="st38" width="25.67" height="19.42"/>
	<rect x="633.64" y="228.71" class="st38" width="25.67" height="19.42"/>
	<rect x="659.31" y="228.71" class="st38" width="25.67" height="19.42"/>
	<rect x="684.98" y="228.71" class="st38" width="25.67" height="19.42"/>
	<rect x="710.55" y="228.81" class="st38" width="25.67" height="19.42"/>
	<rect x="736.31" y="228.71" class="st38" width="25.67" height="19.42"/>
	<rect x="556.63" y="203.63" class="st42" width="25.67" height="19.42"/>
	<rect x="582.3" y="203.63" class="st42" width="25.67" height="19.42"/>
	<rect x="607.88" y="203.73" class="st42" width="25.67" height="19.42"/>
	<rect x="633.64" y="203.63" class="st42" width="25.67" height="19.42"/>
	<rect x="659.31" y="203.63" class="st42" width="25.67" height="19.42"/>
	<rect x="684.98" y="203.63" class="st42" width="25.67" height="19.42"/>
	<rect x="710.55" y="203.73" class="st42" width="25.67" height="19.42"/>
	<rect x="736.31" y="203.63" class="st42" width="25.67" height="19.42"/>
	<rect x="556.63" y="184.12" class="st42" width="25.67" height="19.42"/>
	<rect x="582.3" y="184.12" class="st42" width="25.67" height="19.42"/>
	<rect x="607.88" y="184.21" class="st42" width="25.67" height="19.42"/>
	<rect x="633.64" y="184.12" class="st42" width="25.67" height="19.42"/>
	<rect x="659.31" y="184.12" class="st42" width="25.67" height="19.42"/>
	<rect x="684.98" y="184.12" class="st42" width="25.67" height="19.42"/>
	<rect x="710.55" y="184.21" class="st42" width="25.67" height="19.42"/>
	<rect x="736.31" y="184.12" class="st42" width="25.67" height="19.42"/>
	<rect x="799.65" y="203.63" class="st42" width="25.67" height="19.42"/>
	<rect x="825.32" y="203.63" class="st42" width="25.67" height="19.42"/>
	<rect x="850.89" y="203.73" class="st42" width="25.67" height="19.42"/>
	<rect x="876.65" y="203.63" class="st42" width="25.67" height="19.42"/>
	<rect x="902.32" y="203.63" class="st42" width="25.67" height="19.42"/>
	<rect x="927.99" y="203.63" class="st42" width="25.67" height="19.42"/>
	<rect x="953.57" y="203.73" class="st42" width="25.67" height="19.42"/>
	<rect x="979.33" y="203.63" class="st40" width="25.67" height="19.42"/>
	<rect x="799.65" y="184.12" class="st42" width="25.67" height="19.42"/>
	<rect x="825.32" y="184.12" class="st42" width="25.67" height="19.42"/>
	<rect x="850.89" y="184.21" class="st42" width="25.67" height="19.42"/>
	<rect x="876.65" y="184.12" class="st42" width="25.67" height="19.42"/>
	<rect x="902.32" y="184.12" class="st42" width="25.67" height="19.42"/>
	<rect x="927.99" y="184.12" class="st42" width="25.67" height="19.42"/>
	<rect x="953.57" y="184.21" class="st42" width="25.67" height="19.42"/>
	<rect x="979.33" y="184.12" class="st40" width="25.67" height="19.42"/>
	<rect x="799.65" y="248.32" class="st43" width="25.67" height="19.42"/>
	<rect x="825.32" y="248.32" class="st43" width="25.67" height="19.42"/>
	<rect x="850.89" y="248.41" class="st43" width="25.67" height="19.42"/>
	<rect x="876.65" y="248.32" class="st43" width="25.67" height="19.42"/>
	<rect x="902.32" y="248.32" class="st43" width="25.67" height="19.42"/>
	<rect x="927.99" y="248.32" class="st43" width="25.67" height="19.42"/>
	<rect x="953.57" y="248.41" class="st43" width="25.67" height="19.42"/>
	<rect x="979.33" y="248.32" class="st43" width="25.67" height="19.42"/>
	<rect x="799.65" y="228.81" class="st43" width="25.67" height="19.42"/>
	<rect x="825.32" y="228.81" class="st43" width="25.67" height="19.42"/>
	<rect x="850.89" y="228.9" class="st43" width="25.67" height="19.42"/>
	<rect x="876.65" y="228.81" class="st43" width="25.67" height="19.42"/>
	<rect x="902.32" y="228.81" class="st43" width="25.67" height="19.42"/>
	<rect x="927.99" y="228.81" class="st43" width="25.67" height="19.42"/>
	<rect x="953.57" y="228.9" class="st43" width="25.67" height="19.42"/>
	<rect x="979.33" y="228.81" class="st43" width="25.67" height="19.42"/>
	<rect x="825.32" y="296.56" class="st44" width="25.67" height="19.42"/>
	<rect x="850.89" y="296.66" class="st44" width="25.67" height="19.42"/>
	<rect x="876.65" y="296.56" class="st44" width="25.67" height="19.42"/>
	<rect x="902.32" y="296.56" class="st44" width="25.67" height="19.42"/>
	<rect x="927.99" y="296.56" class="st44" width="25.67" height="19.42"/>
	<rect x="953.57" y="296.66" class="st44" width="25.67" height="19.42"/>
	<rect x="979.33" y="296.56" class="st44" width="25.67" height="19.42"/>
	<rect x="825.32" y="277.05" class="st44" width="25.67" height="19.42"/>
	<rect x="850.89" y="277.14" class="st44" width="25.67" height="19.42"/>
	<rect x="876.65" y="277.05" class="st44" width="25.67" height="19.42"/>
	<rect x="902.32" y="277.05" class="st44" width="25.67" height="19.42"/>
	<rect x="927.99" y="277.05" class="st44" width="25.67" height="19.42"/>
	<rect x="953.57" y="277.14" class="st44" width="25.67" height="19.42"/>
	<rect x="979.33" y="277.05" class="st44" width="25.67" height="19.42"/>
	<rect x="825.32" y="344.86" class="st42" width="25.67" height="19.42"/>
	<rect x="850.89" y="344.95" class="st42" width="25.67" height="19.42"/>
	<rect x="876.65" y="344.86" class="st42" width="25.67" height="19.42"/>
	<rect x="902.32" y="344.86" class="st42" width="25.67" height="19.42"/>
	<rect x="927.99" y="344.86" class="st42" width="25.67" height="19.42"/>
	<rect x="953.57" y="344.95" class="st42" width="25.67" height="19.42"/>
	<rect x="979.33" y="344.86" class="st42" width="25.67" height="19.42"/>
	<rect x="825.32" y="325.34" class="st42" width="25.67" height="19.42"/>
	<rect x="850.89" y="325.44" class="st42" width="25.67" height="19.42"/>
	<rect x="876.65" y="325.34" class="st42" width="25.67" height="19.42"/>
	<rect x="902.32" y="325.34" class="st42" width="25.67" height="19.42"/>
	<rect x="927.99" y="325.34" class="st42" width="25.67" height="19.42"/>
	<rect x="953.57" y="325.44" class="st42" width="25.67" height="19.42"/>
	<rect x="979.33" y="325.34" class="st42" width="25.67" height="19.42"/>
	<rect x="799.65" y="393.33" class="st45" width="25.67" height="19.42"/>
	<rect x="825.32" y="393.33" class="st45" width="25.67" height="19.42"/>
	<rect x="850.89" y="393.42" class="st45" width="25.67" height="19.42"/>
	<rect x="876.65" y="393.33" class="st45" width="25.67" height="19.42"/>
	<rect x="902.32" y="393.33" class="st45" width="25.67" height="19.42"/>
	<rect x="927.99" y="393.33" class="st45" width="25.67" height="19.42"/>
	<rect x="953.57" y="393.42" class="st45" width="25.67" height="19.42"/>
	<rect x="799.65" y="373.82" class="st45" width="25.67" height="19.42"/>
	<rect x="825.32" y="373.82" class="st45" width="25.67" height="19.42"/>
	<rect x="850.89" y="373.91" class="st45" width="25.67" height="19.42"/>
	<rect x="876.65" y="373.82" class="st45" width="25.67" height="19.42"/>
	<rect x="902.32" y="373.82" class="st45" width="25.67" height="19.42"/>
	<rect x="927.99" y="373.82" class="st45" width="25.67" height="19.42"/>
	<rect x="953.57" y="373.91" class="st45" width="25.67" height="19.42"/>
	<rect x="979.33" y="373.82" class="st45" width="25.67" height="19.42"/>
	<rect x="979.33" y="393.33" class="st45" width="25.67" height="19.42"/>
	<rect x="743.75" y="141.78" class="st46" width="80.84" height="24.49"/>
	<rect x="290.96" y="141.78" class="st46" width="80.84" height="24.49"/>
	<polygon class="st47" points="329.59,241.37 329.59,198.24 183.99,198.24 156.67,222.44 156.67,463.28 207.02,463.28 
		207.02,254.97 220.68,241.44 326.76,241.44 	"/>
	<rect x="783.1" y="310.82" class="st4" width="24.91" height="5.8"/>
	<rect x="783.1" y="304.98" class="st4" width="24.91" height="5.8"/>
	<rect x="783.1" y="299.26" class="st4" width="24.91" height="5.8"/>
	<rect x="783.1" y="316.58" class="st4" width="24.91" height="5.8"/>
	<rect x="783.1" y="322.38" class="st4" width="24.91" height="5.8"/>
	<rect x="783.1" y="328.18" class="st4" width="24.91" height="5.8"/>
	<rect x="783.1" y="333.98" class="st4" width="24.91" height="5.8"/>
	<rect x="783.1" y="339.6" class="st4" width="24.91" height="5.8"/>
	<rect x="323.73" y="326.72" class="st4" width="24.91" height="5.8"/>
	<rect x="323.73" y="320.92" class="st4" width="24.91" height="5.8"/>
	<rect x="323.73" y="315.12" class="st4" width="24.91" height="5.8"/>
	<rect x="323.73" y="332.52" class="st4" width="24.91" height="5.8"/>
	<rect x="323.73" y="338.32" class="st4" width="24.91" height="5.8"/>
	<rect x="323.73" y="343.38" class="st4" width="24.91" height="5.8"/>
	<rect x="323.73" y="349.38" class="st4" width="24.91" height="5.8"/>
	<rect x="323.73" y="354.93" class="st4" width="24.91" height="5.8"/>
	<rect x="311.43" y="28.29" class="st4" width="349.71" height="17.02"/>
	<rect x="311.43" y="45.31" class="st4" width="174.86" height="17.02"/>
	<rect x="311.43" y="62.33" class="st4" width="174.86" height="17.02"/>
	<rect x="311.43" y="79.35" class="st4" width="174.86" height="17.02"/>
	<rect x="311.43" y="95.54" class="st4" width="174.86" height="17.02"/>
	<rect x="486.29" y="45.31" class="st4" width="174.86" height="17.02"/>
	<text transform="matrix(1 0 0 1 443.3215 42.3531)" class="st35 st48">KETERANGAN</text>
	<text transform="matrix(1 0 0 1 364.7048 58.8531)" class="st35 st48">KAMAR MANDI</text>
	<rect x="314.71" y="47.94" class="st40" width="19.43" height="12"/>
	<text transform="matrix(1 0 0 1 356.8997 75.7567)" class="st35 st48">WARUNG MAKAN</text>
	<rect x="314.71" y="64.84" class="st39" width="19.43" height="12"/>
	<text transform="matrix(1 0 0 1 345.3918 92.3619)" class="st35 st48">ALAT PERTUKANGAN</text>
	<rect x="314.71" y="81.45" class="st38" width="19.43" height="12"/>
	<text transform="matrix(1 0 0 1 383.5277 108.9671)" class="st35 st48">ELEKTRO</text>
	<rect x="314.71" y="98.05" class="st41" width="19.43" height="12"/>
	<text transform="matrix(1 0 0 1 555.8439 58.734)" class="st35 st48">GERABAH</text>
	<rect x="489.57" y="47.82" class="st44" width="19.43" height="12"/>
	<rect x="486.29" y="62.33" class="st4" width="174.86" height="17.02"/>
	<text transform="matrix(1 0 0 1 559.3437 75.7568)" class="st35 st48">TANGGA</text>
	<rect x="489.57" y="64.84" class="st37" width="2.43" height="12"/>
	<rect x="492" y="64.84" class="st37" width="2.43" height="12"/>
	<rect x="494.43" y="64.84" class="st37" width="2.43" height="12"/>
	<rect x="496.86" y="64.84" class="st37" width="2.43" height="12"/>
	<rect x="499.29" y="64.84" class="st37" width="2.43" height="12"/>
	<rect x="501.71" y="64.84" class="st37" width="2.43" height="12"/>
	<rect x="504.14" y="64.84" class="st37" width="2.43" height="12"/>
	<rect x="506.57" y="64.84" class="st37" width="2.43" height="12"/>
	<polygon class="st49" points="1080.27,81.22 1093.04,47.04 1105.71,81.22 1092.99,65.07 	"/>
	<text transform="matrix(1 0 0 1 1084.8721 44.2272)" class="st35 st50">U</text>
</g>
</svg>
