<?xml version="1.0" encoding="utf-8"?>
<!-- Generator: Adobe Illustrator 24.0.1, SVG Export Plug-In . SVG Version: 6.00 Build 0)  -->
<svg version="1.1" xmlns="http://www.w3.org/2000/svg" xmlns:xlink="http://www.w3.org/1999/xlink" x="0px" y="0px"
	 viewBox="0 0 1190.55 496" style="enable-background:new 0 0 1190.55 496;" xml:space="preserve">
<style type="text/css">
	.st0{fill:#FFFFFF;stroke:#000000;stroke-miterlimit:10;}
	.st1{display:none;fill:#9A9899;}
	.st2{display:none;fill:#DE9086;}
	.st3{display:none;fill:#507B57;}
	.st4{display:none;fill:#D24F43;}
	.st5{fill:#34302B;}
	.st6{display:none;}
	.st7{display:inline;fill:#6497B9;}
	.st8{display:inline;fill:#CC4C56;}
	.st9{display:inline;fill:#653122;}
	.st10{display:inline;fill:#6C6046;}
	.st11{display:inline;fill:#CE4279;}
	.st12{display:inline;fill:#8F4563;}
	.st13{display:inline;fill:#9D7356;}
	.st14{display:inline;fill:#74AE89;}
	.st15{display:inline;fill:#574332;}
	.st16{display:inline;fill:#6A7995;}
	.st17{display:inline;fill:#6C6A71;}
	.st18{display:inline;fill:#5F6E56;}
	.st19{display:inline;fill:#4F84B2;}
	.st20{display:inline;fill:#C94877;}
	.st21{display:inline;fill:#6D747A;}
	.st22{display:inline;fill:#E2E1A9;}
	.st23{display:inline;fill:#829F7A;}
	.st24{display:inline;fill:#763148;}
	.st25{display:inline;fill:#727048;}
	.st26{display:inline;fill:#A9A137;}
	.st27{display:inline;fill:#D9894D;}
	.st28{display:inline;fill:#CFA62B;}
	.st29{display:inline;fill:#897B4E;}
	.st30{display:inline;fill:#D3CC74;}
	.st31{display:inline;fill:#C33266;}
	.st32{display:inline;fill:#ABAB53;}
	.st33{display:inline;fill:#436139;}
	.st34{fill:#84856C;}
	.st35{fill:#FFFFFF;}
	.st36{font-family:'MyriadPro-Bold';}
	.st37{font-size:24px;}
	.st38{fill:none;stroke:#000000;stroke-miterlimit:10;}
	.st39{fill:#00A14B;stroke:#000000;stroke-miterlimit:10;}
	.st40{fill:#262262;stroke:#000000;stroke-miterlimit:10;}
	.st41{fill:#9E2064;stroke:#010101;stroke-miterlimit:10;}
	.st42{fill:#21409A;stroke:#000000;stroke-miterlimit:10;}
	.st43{fill:#D24F43;stroke:#000000;stroke-miterlimit:10;}
	.st44{fill:#FFFFFF;stroke:#FFFFFF;stroke-miterlimit:10;}
	.st45{font-family:'MyriadPro-Regular';}
	.st46{font-size:31.879px;}
	.st47{font-size:14px;}
	.st48{font-size:13.6706px;}
	.st49{stroke:#000000;stroke-miterlimit:10;}
	.st50{font-size:23.6589px;}
</style>
<g id="Layer_1">
	<polygon class="st0" points="156.05,397.1 156.05,141.86 1034.47,141.86 1034.47,397.1 286.4,397.1 247.32,397.1 247.32,439.69 
		156.05,439.69 	"/>
	<rect x="105.43" y="66" class="st1" width="381.34" height="225.16"/>
	<rect x="500.38" y="124" class="st1" width="600.2" height="167.16"/>
	<rect x="1088.71" y="154.71" class="st2" width="27.21" height="90.64"/>
	<rect x="1082.43" y="171.54" class="st3" width="6.29" height="60.21"/>
	<rect x="993.07" y="120.64" class="st4" width="36.43" height="11.04"/>
	<rect x="768.29" y="120.64" class="st4" width="36.43" height="11.04"/>
	<rect x="575.26" y="120.64" class="st4" width="36.43" height="11.04"/>
	<rect x="282.61" y="72.57" class="st4" width="36.43" height="10.68"/>
	<path class="st5" d="M971.97,228.27"/>
	<path class="st5" d="M1034.48,228.27c-0.01-17.49-0.11-33.95-0.35-45.01c-0.78-35.97-54.73-41.4-54.73-41.4H830.91H156.05v39.05
		h674.86c24.5-0.09,106.98-0.37,122.3,0.03c18.03,0.47,18.77,12.37,18.77,12.37v34.96L1034.48,228.27l-0.01,54.57h-62.49v-54.57"/>
	<rect x="477.26" y="180.91" class="st5" width="106.82" height="269.65"/>
	<path class="st0" d="M156.05,444.48"/>
</g>
<g id="Layer_10">
</g>
<g id="Layer_2" class="st6">
	<rect x="932.64" y="134.36" class="st7" width="12.86" height="19.29"/>
	<rect x="948.29" y="134.36" class="st7" width="12.86" height="19.29"/>
	<rect x="1063.18" y="134.36" class="st8" width="12.86" height="52.29"/>
	<rect x="1047.07" y="134.36" class="st8" width="12.86" height="61.71"/>
	<rect x="1031.21" y="134.36" class="st8" width="12.86" height="61.71"/>
	<rect x="1014.07" y="134.36" class="st8" width="12.86" height="61.71"/>
	<rect x="998.43" y="134.36" class="st8" width="12.86" height="61.71"/>
	<rect x="948.29" y="153.64" class="st8" width="12.86" height="42.43"/>
	<rect x="932.64" y="153.64" class="st8" width="12.86" height="42.43"/>
	<rect x="915.5" y="134.36" class="st8" width="12.86" height="61.71"/>
	<rect x="981.29" y="134.36" class="st8" width="12.86" height="57.64"/>
	<rect x="965.43" y="134.36" class="st8" width="12.86" height="57.64"/>
</g>
<g id="Layer_3" class="st6">
	<rect x="1047.48" y="207.43" class="st9" width="12.86" height="58.71"/>
	<rect x="1062.82" y="216.21" class="st10" width="12.86" height="49.93"/>
	<rect x="1031.21" y="207.43" class="st9" width="12.86" height="58.71"/>
	<rect x="1014.07" y="207.43" class="st9" width="12.86" height="58.71"/>
	<rect x="998.43" y="207.43" class="st9" width="12.86" height="58.71"/>
	<rect x="948.71" y="207.43" class="st11" width="12.86" height="58.71"/>
	<rect x="932.11" y="207.43" class="st12" width="12.86" height="58.71"/>
	<rect x="915.5" y="207.43" class="st12" width="12.86" height="58.71"/>
	<rect x="981.29" y="211.5" class="st9" width="12.86" height="54.64"/>
	<rect x="965.54" y="211.5" class="st13" width="12.86" height="54.64"/>
</g>
<g id="Layer_4" class="st6">
	<rect x="863.21" y="207.43" class="st14" width="12.86" height="59.14"/>
	<rect x="830.86" y="207.43" class="st15" width="12.86" height="59.14"/>
	<rect x="815" y="207.43" class="st15" width="12.86" height="59.14"/>
	<rect x="732.5" y="207.43" class="st15" width="12.86" height="59.14"/>
	<rect x="714.93" y="207.43" class="st15" width="12.86" height="59.14"/>
	<rect x="798.29" y="211.31" class="st15" width="12.86" height="55.26"/>
	<rect x="846.71" y="207.43" class="st16" width="6.64" height="59.14"/>
	<rect x="853.36" y="207.43" class="st17" width="6.64" height="59.14"/>
	<rect x="781.57" y="211.31" class="st17" width="6.64" height="55.26"/>
	<rect x="788.21" y="211.31" class="st15" width="6.64" height="55.26"/>
	<rect x="764.32" y="207.43" class="st18" width="6.64" height="59.14"/>
	<rect x="771.07" y="207.43" class="st15" width="6.64" height="59.14"/>
	<rect x="747.29" y="207.43" class="st15" width="6.64" height="59.14"/>
	<rect x="753.93" y="207.43" class="st12" width="6.64" height="59.14"/>
</g>
<g id="Layer_5" class="st6">
	<rect x="732.5" y="153.29" class="st15" width="12.86" height="42.86"/>
	<rect x="732.5" y="134.14" class="st19" width="12.86" height="19.14"/>
	<rect x="747.29" y="134.14" class="st19" width="13.71" height="19.14"/>
	<rect x="798.29" y="134.14" class="st20" width="12.86" height="57.43"/>
	<rect x="714.93" y="134.14" class="st20" width="6.86" height="62"/>
	<rect x="721.79" y="134.14" class="st17" width="6.86" height="62"/>
	<rect x="747.29" y="153.29" class="st18" width="6.86" height="42.86"/>
	<rect x="754.14" y="153.29" class="st20" width="6.86" height="42.86"/>
	<rect x="764.21" y="134.14" class="st18" width="6.86" height="62"/>
	<rect x="771.07" y="134.14" class="st20" width="6.86" height="62"/>
	<rect x="781.57" y="134.14" class="st15" width="6.86" height="57.43"/>
	<rect x="788.43" y="134.14" class="st17" width="6.86" height="57.43"/>
	<rect x="814.57" y="134.14" class="st17" width="6.86" height="62"/>
	<rect x="821.43" y="134.14" class="st15" width="6.86" height="62"/>
	<rect x="830.43" y="134.14" class="st20" width="6.86" height="62"/>
	<rect x="837.29" y="134.14" class="st15" width="6.86" height="62"/>
	<rect x="846.5" y="134.14" class="st17" width="6.86" height="62"/>
	<rect x="853.36" y="134.14" class="st16" width="6.86" height="62"/>
	<rect x="862.79" y="134.14" class="st21" width="6.86" height="62"/>
	<rect x="869.64" y="134.14" class="st14" width="6.86" height="62"/>
</g>
<g id="Layer_6" class="st6">
	<rect x="664.57" y="134.36" class="st22" width="12.86" height="61.79"/>
	<rect x="648.5" y="134.36" class="st22" width="12.86" height="61.79"/>
	<rect x="633.29" y="134.36" class="st22" width="12.86" height="61.79"/>
	<rect x="615.29" y="134.36" class="st23" width="12.86" height="61.79"/>
	<rect x="600.26" y="134.36" class="st23" width="12.86" height="61.79"/>
	<rect x="583.9" y="134.36" class="st23" width="12.86" height="61.79"/>
	<rect x="567.68" y="134.36" class="st23" width="12.86" height="61.79"/>
	<rect x="519.4" y="134.36" class="st24" width="12.86" height="61.79"/>
	<rect x="551.54" y="153.57" class="st24" width="12.86" height="42.57"/>
	<rect x="536.33" y="153.5" class="st24" width="12.86" height="42.57"/>
	<rect x="551.54" y="134.39" class="st19" width="12.86" height="19.18"/>
	<rect x="536.33" y="134.36" class="st19" width="12.86" height="19.18"/>
</g>
<g id="Layer_7" class="st6">
	<rect x="519.4" y="207" class="st22" width="12.86" height="59.27"/>
	<rect x="535.9" y="207" class="st22" width="12.86" height="59.27"/>
	<rect x="551.68" y="207" class="st22" width="12.86" height="59.27"/>
	<rect x="568.83" y="207" class="st22" width="12.86" height="59.27"/>
	<rect x="583.9" y="211.29" class="st22" width="12.86" height="54.98"/>
	<rect x="600.26" y="211.57" class="st22" width="12.86" height="54.98"/>
	<rect x="616.54" y="207.29" class="st22" width="12.86" height="59.27"/>
	<rect x="648.5" y="207.29" class="st22" width="12.86" height="59.27"/>
	<rect x="664.96" y="207.29" class="st22" width="12.86" height="59.27"/>
</g>
<g id="Layer_8" class="st6">
	<rect x="449.68" y="184.57" class="st25" width="12.86" height="86.57"/>
	<rect x="433.4" y="192.39" class="st26" width="12.86" height="78.75"/>
	<rect x="350.9" y="227.86" class="st27" width="12.86" height="43.29"/>
	<rect x="350.9" y="184.57" class="st28" width="12.86" height="43.29"/>
	<rect x="335.33" y="184.57" class="st27" width="12.86" height="86.57"/>
	<rect x="320.04" y="184.57" class="st27" width="12.86" height="86.57"/>
	<rect x="296.63" y="185.05" class="st25" width="12.86" height="86.09"/>
	<rect x="280.13" y="185.05" class="st25" width="12.86" height="86.09"/>
	<rect x="264.7" y="185.05" class="st25" width="12.86" height="86.09"/>
	<rect x="249.97" y="184.57" class="st29" width="12.86" height="86.57"/>
	<rect x="220.61" y="184.57" class="st29" width="12.86" height="86.57"/>
	<rect x="204.97" y="184.57" class="st29" width="12.86" height="86.57"/>
	<rect x="188.9" y="184.57" class="st29" width="12.86" height="86.57"/>
	<rect x="173.47" y="184.57" class="st29" width="12.86" height="86.57"/>
	<rect x="139.36" y="184.57" class="st30" width="15.9" height="86.57"/>
	<rect x="237.5" y="184.57" class="st29" width="9.04" height="86.57"/>
	<rect x="161" y="184.57" class="st29" width="9.04" height="86.57"/>
	<rect x="418.26" y="230.77" class="st25" width="12.86" height="40.37"/>
	<rect x="418.26" y="191.47" class="st26" width="12.86" height="39.3"/>
</g>
<g id="Layer_9" class="st6">
	<rect x="297.11" y="90.29" class="st25" width="12.86" height="86.71"/>
	<rect x="320.04" y="90.29" class="st25" width="12.86" height="86.71"/>
	<rect x="335.33" y="107.59" class="st25" width="12.86" height="69.41"/>
	<rect x="350.9" y="107.59" class="st25" width="12.86" height="69.41"/>
	<rect x="335.33" y="90.29" class="st19" width="12.86" height="17.36"/>
	<rect x="350.9" y="90.29" class="st19" width="12.86" height="17.36"/>
	<rect x="367.18" y="90.29" class="st25" width="12.86" height="86.71"/>
	<rect x="402.97" y="90.29" class="st25" width="12.86" height="86.71"/>
	<rect x="449.68" y="90.29" class="st31" width="12.86" height="74.29"/>
	<rect x="433.61" y="90.29" class="st31" width="12.86" height="78.1"/>
	<rect x="418.29" y="90.29" class="st25" width="12.86" height="78.1"/>
	<rect x="280.61" y="90.29" class="st32" width="12.86" height="86.71"/>
	<rect x="265.18" y="90.29" class="st32" width="12.86" height="86.71"/>
	<rect x="249.97" y="90.29" class="st32" width="12.86" height="86.71"/>
	<rect x="220.61" y="90.29" class="st32" width="12.86" height="86.71"/>
	<rect x="204.97" y="90.29" class="st32" width="12.86" height="86.71"/>
	<rect x="188.9" y="90.29" class="st32" width="12.86" height="86.71"/>
	<rect x="173.47" y="90.29" class="st32" width="12.86" height="86.71"/>
	<rect x="139.36" y="90.29" class="st32" width="15.9" height="86.71"/>
	<rect x="237.5" y="90.29" class="st32" width="9.04" height="86.71"/>
	<rect x="161" y="90.29" class="st32" width="9.04" height="86.71"/>
	<rect x="130.89" y="164.25" class="st33" width="15.75" height="12.75"/>
	<rect x="130.89" y="184.57" class="st33" width="15.75" height="11.93"/>
</g>
<g id="Layer_11">
	<polygon class="st34" points="28.29,102.29 28.29,28.29 251.67,28.29 219.96,102.29 	"/>
	<text transform="matrix(1 0 0 1 69.628 58.4245)"><tspan x="0" y="0" class="st35 st36 st37">GEDUNG III</tspan><tspan x="0" y="28.8" class="st35 st36 st37">LANTAI II</tspan></text>
	<rect class="st38" width="1190.55" height="496"/>
	<rect x="845.27" y="312.4" class="st39" width="20.18" height="18.43"/>
	<rect x="865.45" y="312.4" class="st39" width="20.18" height="18.43"/>
	<rect x="885.62" y="312.4" class="st39" width="20.18" height="18.43"/>
	<rect x="905.8" y="312.4" class="st39" width="20.18" height="18.43"/>
	<rect x="925.97" y="312.4" class="st39" width="20.18" height="18.43"/>
	<rect x="946.15" y="312.4" class="st39" width="20.18" height="18.43"/>
	<rect x="966.33" y="312.4" class="st39" width="20.18" height="18.43"/>
	<rect x="986.5" y="312.4" class="st39" width="20.18" height="18.43"/>
	<rect x="845.27" y="293.97" class="st39" width="20.18" height="18.43"/>
	<rect x="865.45" y="293.97" class="st39" width="20.18" height="18.43"/>
	<rect x="885.62" y="293.97" class="st39" width="20.18" height="18.43"/>
	<rect x="905.8" y="293.97" class="st39" width="20.18" height="18.43"/>
	<rect x="925.97" y="293.97" class="st39" width="20.18" height="18.43"/>
	<rect x="845.27" y="264.11" class="st39" width="20.18" height="18.43"/>
	<rect x="865.45" y="264.11" class="st39" width="20.18" height="18.43"/>
	<rect x="885.62" y="264.11" class="st39" width="20.18" height="18.43"/>
	<rect x="905.8" y="264.11" class="st39" width="20.18" height="18.43"/>
	<rect x="925.97" y="264.11" class="st39" width="20.18" height="18.43"/>
	<rect x="845.27" y="245.68" class="st39" width="20.18" height="18.43"/>
	<rect x="865.45" y="245.68" class="st39" width="20.18" height="18.43"/>
	<rect x="885.62" y="245.68" class="st39" width="20.18" height="18.43"/>
	<rect x="905.8" y="245.68" class="st39" width="20.18" height="18.43"/>
	<rect x="925.97" y="245.68" class="st39" width="20.18" height="18.43"/>
	<rect x="845.27" y="213.23" class="st40" width="20.18" height="18.43"/>
	<rect x="865.45" y="213.23" class="st40" width="20.18" height="18.43"/>
	<rect x="885.62" y="213.23" class="st40" width="20.18" height="18.43"/>
	<rect x="905.8" y="213.23" class="st40" width="20.18" height="18.43"/>
	<rect x="925.97" y="213.23" class="st40" width="20.18" height="18.43"/>
	<rect x="845.27" y="194.8" class="st40" width="20.18" height="18.43"/>
	<rect x="865.45" y="194.8" class="st40" width="20.18" height="18.43"/>
	<rect x="885.62" y="194.8" class="st40" width="20.18" height="18.43"/>
	<rect x="905.8" y="194.8" class="st40" width="20.18" height="18.43"/>
	<rect x="925.97" y="194.8" class="st40" width="20.18" height="18.43"/>
	<rect x="946.15" y="293.97" class="st39" width="20.18" height="18.43"/>
	<rect x="966.33" y="293.97" class="st39" width="20.18" height="18.43"/>
	<rect x="986.5" y="293.97" class="st39" width="20.18" height="18.43"/>
	<rect x="845.27" y="364.57" class="st39" width="20.18" height="18.43"/>
	<rect x="865.45" y="364.57" class="st39" width="20.18" height="18.43"/>
	<rect x="885.62" y="364.57" class="st39" width="20.18" height="18.43"/>
	<rect x="905.8" y="364.57" class="st39" width="20.18" height="18.43"/>
	<rect x="925.97" y="364.57" class="st39" width="20.18" height="18.43"/>
	<rect x="946.15" y="364.57" class="st39" width="20.18" height="18.43"/>
	<rect x="966.33" y="364.57" class="st39" width="20.18" height="18.43"/>
	<rect x="845.27" y="346.14" class="st39" width="20.18" height="18.43"/>
	<rect x="865.45" y="346.14" class="st39" width="20.18" height="18.43"/>
	<rect x="885.62" y="346.14" class="st39" width="20.18" height="18.43"/>
	<rect x="905.8" y="346.14" class="st39" width="20.18" height="18.43"/>
	<rect x="925.97" y="346.14" class="st39" width="20.18" height="18.43"/>
	<rect x="946.15" y="346.14" class="st39" width="20.18" height="18.43"/>
	<rect x="966.33" y="346.14" class="st39" width="20.18" height="18.43"/>
	<rect x="986.5" y="346.14" class="st39" width="20.18" height="18.43"/>
	<rect x="986.5" y="364.57" class="st39" width="20.18" height="18.43"/>
	<rect x="611.53" y="364.57" class="st39" width="20.18" height="18.43"/>
	<rect x="631.71" y="364.57" class="st39" width="20.18" height="18.43"/>
	<rect x="651.88" y="364.57" class="st39" width="20.18" height="18.43"/>
	<rect x="672.06" y="364.57" class="st39" width="20.18" height="18.43"/>
	<rect x="692.24" y="364.57" class="st39" width="20.18" height="18.43"/>
	<rect x="712.41" y="364.57" class="st39" width="20.18" height="18.43"/>
	<rect x="732.59" y="364.57" class="st39" width="20.18" height="18.43"/>
	<rect x="611.53" y="346.14" class="st39" width="20.18" height="18.43"/>
	<rect x="631.71" y="346.14" class="st39" width="20.18" height="18.43"/>
	<rect x="651.88" y="346.14" class="st39" width="20.18" height="18.43"/>
	<rect x="390.38" y="361.99" class="st41" width="20.18" height="18.43"/>
	<rect x="370.2" y="361.99" class="st41" width="20.18" height="18.43"/>
	<rect x="370.2" y="343.56" class="st41" width="20.18" height="18.43"/>
	<rect x="410.56" y="361.99" class="st41" width="20.18" height="18.43"/>
	<rect x="430.73" y="361.99" class="st41" width="20.18" height="18.43"/>
	<rect x="390.38" y="343.56" class="st41" width="20.18" height="18.43"/>
	<rect x="410.56" y="343.56" class="st41" width="20.18" height="18.43"/>
	<rect x="430.73" y="343.56" class="st41" width="20.18" height="18.43"/>
	<rect x="390.38" y="312.31" class="st42" width="20.18" height="18.43"/>
	<rect x="370.2" y="312.31" class="st42" width="20.18" height="18.43"/>
	<rect x="370.2" y="293.88" class="st42" width="20.18" height="18.43"/>
	<rect x="410.56" y="312.31" class="st42" width="20.18" height="18.43"/>
	<rect x="430.73" y="312.31" class="st42" width="20.18" height="18.43"/>
	<rect x="390.38" y="293.88" class="st42" width="20.18" height="18.43"/>
	<rect x="410.56" y="293.88" class="st42" width="20.18" height="18.43"/>
	<rect x="430.73" y="293.88" class="st42" width="20.18" height="18.43"/>
	<rect x="390.38" y="264.11" class="st42" width="20.18" height="18.43"/>
	<rect x="370.2" y="264.11" class="st42" width="20.18" height="18.43"/>
	<rect x="370.2" y="245.68" class="st42" width="20.18" height="18.43"/>
	<rect x="410.56" y="264.11" class="st42" width="20.18" height="18.43"/>
	<rect x="430.73" y="264.11" class="st42" width="20.18" height="18.43"/>
	<rect x="390.38" y="245.68" class="st42" width="20.18" height="18.43"/>
	<rect x="410.56" y="245.68" class="st42" width="20.18" height="18.43"/>
	<rect x="430.73" y="245.68" class="st42" width="20.18" height="18.43"/>
	<rect x="390.38" y="213.23" class="st39" width="20.18" height="18.43"/>
	<rect x="370.2" y="213.23" class="st39" width="20.18" height="18.43"/>
	<rect x="370.2" y="194.8" class="st39" width="20.18" height="18.43"/>
	<rect x="350.03" y="213.23" class="st39" width="20.18" height="18.43"/>
	<rect x="350.03" y="194.8" class="st39" width="20.18" height="18.43"/>
	<rect x="410.56" y="213.23" class="st39" width="20.18" height="18.43"/>
	<rect x="430.73" y="213.23" class="st39" width="20.18" height="18.43"/>
	<rect x="390.38" y="194.8" class="st39" width="20.18" height="18.43"/>
	<rect x="410.56" y="194.8" class="st39" width="20.18" height="18.43"/>
	<rect x="430.73" y="194.8" class="st39" width="20.18" height="18.43"/>
	<rect x="222.79" y="213.23" class="st39" width="20.18" height="18.43"/>
	<rect x="202.62" y="213.23" class="st39" width="20.18" height="18.43"/>
	<rect x="202.62" y="194.8" class="st39" width="20.18" height="18.43"/>
	<rect x="182.44" y="213.23" class="st39" width="20.18" height="18.43"/>
	<rect x="182.44" y="194.8" class="st39" width="20.18" height="18.43"/>
	<rect x="242.97" y="213.23" class="st39" width="20.18" height="18.43"/>
	<rect x="263.15" y="213.23" class="st39" width="20.18" height="18.43"/>
	<rect x="222.79" y="194.8" class="st39" width="20.18" height="18.43"/>
	<rect x="242.97" y="194.8" class="st39" width="20.18" height="18.43"/>
	<rect x="263.15" y="194.8" class="st39" width="20.18" height="18.43"/>
	<rect x="283.32" y="213.23" class="st39" width="20.18" height="18.43"/>
	<rect x="303.5" y="213.23" class="st39" width="20.18" height="18.43"/>
	<rect x="283.32" y="194.8" class="st39" width="20.18" height="18.43"/>
	<rect x="303.5" y="194.8" class="st39" width="20.18" height="18.43"/>
	<rect x="222.79" y="264.11" class="st42" width="20.18" height="18.43"/>
	<rect x="202.62" y="264.11" class="st42" width="20.18" height="18.43"/>
	<rect x="202.62" y="245.68" class="st42" width="20.18" height="18.43"/>
	<rect x="182.44" y="264.11" class="st42" width="20.18" height="18.43"/>
	<rect x="182.44" y="245.68" class="st42" width="20.18" height="18.43"/>
	<rect x="242.97" y="264.11" class="st42" width="20.18" height="18.43"/>
	<rect x="263.15" y="264.11" class="st42" width="20.18" height="18.43"/>
	<rect x="222.79" y="245.68" class="st42" width="20.18" height="18.43"/>
	<rect x="242.97" y="245.68" class="st42" width="20.18" height="18.43"/>
	<rect x="263.15" y="245.68" class="st42" width="20.18" height="18.43"/>
	<rect x="283.32" y="264.11" class="st42" width="20.18" height="18.43"/>
	<rect x="303.5" y="264.11" class="st42" width="20.18" height="18.43"/>
	<rect x="283.32" y="245.68" class="st42" width="20.18" height="18.43"/>
	<rect x="303.5" y="245.68" class="st42" width="20.18" height="18.43"/>
	<rect x="222.79" y="312.31" class="st41" width="20.18" height="18.43"/>
	<rect x="202.62" y="312.31" class="st41" width="20.18" height="18.43"/>
	<rect x="202.62" y="293.88" class="st41" width="20.18" height="18.43"/>
	<rect x="182.44" y="312.31" class="st41" width="20.18" height="18.43"/>
	<rect x="182.44" y="293.88" class="st41" width="20.18" height="18.43"/>
	<rect x="242.97" y="312.31" class="st41" width="20.18" height="18.43"/>
	<rect x="263.15" y="312.31" class="st41" width="20.18" height="18.43"/>
	<rect x="222.79" y="293.88" class="st41" width="20.18" height="18.43"/>
	<rect x="242.97" y="293.88" class="st41" width="20.18" height="18.43"/>
	<rect x="263.15" y="293.88" class="st41" width="20.18" height="18.43"/>
	<rect x="283.32" y="312.31" class="st41" width="20.18" height="18.43"/>
	<rect x="303.5" y="312.31" class="st41" width="20.18" height="18.43"/>
	<rect x="283.32" y="293.88" class="st41" width="20.18" height="18.43"/>
	<rect x="303.5" y="293.88" class="st41" width="20.18" height="18.43"/>
	<rect x="222.79" y="361.99" class="st41" width="20.18" height="18.43"/>
	<rect x="202.62" y="361.99" class="st41" width="20.18" height="18.43"/>
	<rect x="202.62" y="343.56" class="st41" width="20.18" height="18.43"/>
	<rect x="182.44" y="361.99" class="st41" width="20.18" height="18.43"/>
	<rect x="182.44" y="343.56" class="st41" width="20.18" height="18.43"/>
	<rect x="202.62" y="409.46" class="st41" width="20.18" height="18.43"/>
	<rect x="202.62" y="391.03" class="st41" width="20.18" height="18.43"/>
	<rect x="182.44" y="409.46" class="st41" width="20.18" height="18.43"/>
	<rect x="182.44" y="391.03" class="st41" width="20.18" height="18.43"/>
	<rect x="242.97" y="361.99" class="st41" width="20.18" height="18.43"/>
	<rect x="263.15" y="361.99" class="st41" width="20.18" height="18.43"/>
	<rect x="222.79" y="343.56" class="st41" width="20.18" height="18.43"/>
	<rect x="242.97" y="343.56" class="st41" width="20.18" height="18.43"/>
	<rect x="263.15" y="343.56" class="st41" width="20.18" height="18.43"/>
	<rect x="283.32" y="361.99" class="st41" width="20.18" height="18.43"/>
	<rect x="303.5" y="361.99" class="st41" width="20.18" height="18.43"/>
	<rect x="283.32" y="343.56" class="st41" width="20.18" height="18.43"/>
	<rect x="303.5" y="343.56" class="st41" width="20.18" height="18.43"/>
	<rect x="672.06" y="346.14" class="st39" width="20.18" height="18.43"/>
	<rect x="692.24" y="346.14" class="st39" width="20.18" height="18.43"/>
	<rect x="712.41" y="346.14" class="st39" width="20.18" height="18.43"/>
	<rect x="732.59" y="346.14" class="st39" width="20.18" height="18.43"/>
	<rect x="752.77" y="346.14" class="st39" width="20.18" height="18.43"/>
	<rect x="752.77" y="364.57" class="st39" width="20.18" height="18.43"/>
	<rect x="611.53" y="312.4" class="st39" width="20.18" height="18.43"/>
	<rect x="631.71" y="312.4" class="st39" width="20.18" height="18.43"/>
	<rect x="651.88" y="312.4" class="st39" width="20.18" height="18.43"/>
	<rect x="672.06" y="312.4" class="st39" width="20.18" height="18.43"/>
	<rect x="692.24" y="312.4" class="st39" width="20.18" height="18.43"/>
	<rect x="712.41" y="312.4" class="st39" width="20.18" height="18.43"/>
	<rect x="732.59" y="312.4" class="st39" width="20.18" height="18.43"/>
	<rect x="611.53" y="293.97" class="st39" width="20.18" height="18.43"/>
	<rect x="631.71" y="293.97" class="st39" width="20.18" height="18.43"/>
	<rect x="651.88" y="293.97" class="st39" width="20.18" height="18.43"/>
	<rect x="672.06" y="293.97" class="st39" width="20.18" height="18.43"/>
	<rect x="692.24" y="293.97" class="st39" width="20.18" height="18.43"/>
	<rect x="712.41" y="293.97" class="st39" width="20.18" height="18.43"/>
	<rect x="732.59" y="293.97" class="st39" width="20.18" height="18.43"/>
	<rect x="752.77" y="293.97" class="st39" width="20.18" height="18.43"/>
	<rect x="752.77" y="312.4" class="st39" width="20.18" height="18.43"/>
	<rect x="611.53" y="264.11" class="st39" width="20.18" height="18.43"/>
	<rect x="631.71" y="264.11" class="st39" width="20.18" height="18.43"/>
	<rect x="651.88" y="264.11" class="st39" width="20.18" height="18.43"/>
	<rect x="672.06" y="264.11" class="st39" width="20.18" height="18.43"/>
	<rect x="692.24" y="264.11" class="st39" width="20.18" height="18.43"/>
	<rect x="712.41" y="264.11" class="st39" width="20.18" height="18.43"/>
	<rect x="732.59" y="264.11" class="st39" width="20.18" height="18.43"/>
	<rect x="611.53" y="245.68" class="st39" width="20.18" height="18.43"/>
	<rect x="631.71" y="245.68" class="st39" width="20.18" height="18.43"/>
	<rect x="651.88" y="245.68" class="st39" width="20.18" height="18.43"/>
	<rect x="672.06" y="245.68" class="st39" width="20.18" height="18.43"/>
	<rect x="692.24" y="245.68" class="st39" width="20.18" height="18.43"/>
	<rect x="712.41" y="245.68" class="st39" width="20.18" height="18.43"/>
	<rect x="732.59" y="245.68" class="st39" width="20.18" height="18.43"/>
	<rect x="752.77" y="245.68" class="st39" width="20.18" height="18.43"/>
	<rect x="752.77" y="264.11" class="st39" width="20.18" height="18.43"/>
	<rect x="611.53" y="213.23" class="st39" width="20.18" height="18.43"/>
	<rect x="631.71" y="213.23" class="st39" width="20.18" height="18.43"/>
	<rect x="651.88" y="213.23" class="st39" width="20.18" height="18.43"/>
	<rect x="672.06" y="213.23" class="st39" width="20.18" height="18.43"/>
	<rect x="692.24" y="213.23" class="st39" width="20.18" height="18.43"/>
	<rect x="712.41" y="213.23" class="st39" width="20.18" height="18.43"/>
	<rect x="732.59" y="213.23" class="st39" width="20.18" height="18.43"/>
	<rect x="611.53" y="194.8" class="st39" width="20.18" height="18.43"/>
	<rect x="631.71" y="194.8" class="st39" width="20.18" height="18.43"/>
	<rect x="651.88" y="194.8" class="st39" width="20.18" height="18.43"/>
	<rect x="672.06" y="194.8" class="st39" width="20.18" height="18.43"/>
	<rect x="692.24" y="194.8" class="st39" width="20.18" height="18.43"/>
	<rect x="712.41" y="194.8" class="st39" width="20.18" height="18.43"/>
	<rect x="732.59" y="194.8" class="st39" width="20.18" height="18.43"/>
	<rect x="752.77" y="194.8" class="st39" width="20.18" height="18.43"/>
	<rect x="752.77" y="213.23" class="st39" width="20.18" height="18.43"/>
	<rect x="780.64" y="390.63" class="st43" width="62.15" height="18.83"/>
	<text transform="matrix(0 -1 1 0 540.5823 425.4921)" class="st44 st45 st46">BONGKAR MUAT</text>
	<rect x="797.11" y="272.25" class="st0" width="26.65" height="6.21"/>
	<rect x="797.11" y="290.87" class="st0" width="26.65" height="6.21"/>
	<rect x="797.11" y="284.67" class="st0" width="26.65" height="6.21"/>
	<rect x="797.11" y="278.46" class="st0" width="26.65" height="6.21"/>
	<rect x="797.11" y="297.27" class="st0" width="26.65" height="6.21"/>
	<rect x="797.11" y="303.48" class="st0" width="26.65" height="6.21"/>
	<rect x="797.11" y="309.68" class="st0" width="26.65" height="6.21"/>
	<rect x="797.11" y="315.89" class="st0" width="26.65" height="6.21"/>
	<rect x="333.62" y="272.25" class="st0" width="26.65" height="6.21"/>
	<rect x="333.62" y="290.87" class="st0" width="26.65" height="6.21"/>
	<rect x="333.62" y="284.67" class="st0" width="26.65" height="6.21"/>
	<rect x="333.62" y="278.46" class="st0" width="26.65" height="6.21"/>
	<rect x="333.62" y="297.27" class="st0" width="26.65" height="6.21"/>
	<rect x="333.62" y="303.48" class="st0" width="26.65" height="6.21"/>
	<rect x="333.62" y="309.68" class="st0" width="26.65" height="6.21"/>
	<rect x="333.62" y="315.89" class="st0" width="26.65" height="6.21"/>
	<rect x="312.29" y="28.29" class="st0" width="349.71" height="17.02"/>
	<rect x="312.29" y="61.91" class="st0" width="174.86" height="17.02"/>
	<rect x="312.29" y="78.94" class="st0" width="174.86" height="17.02"/>
	<rect x="312.29" y="95.96" class="st0" width="174.86" height="17.02"/>
	<text transform="matrix(1 0 0 1 443.7501 42.3531)" class="st36 st47">KETERANGAN</text>
	<text transform="matrix(1 0 0 1 384.6873 75.4582)" class="st36 st47">LOMBOK</text>
	<rect x="315.57" y="64.54" class="st41" width="19.43" height="12"/>
	<rect x="312.29" y="44.93" class="st0" width="174.86" height="17.02"/>
	<text transform="matrix(1 0 0 1 365.5617 58.4732)" class="st36 st47">KAMAR MANDI</text>
	<rect x="315.57" y="47.56" class="st40" width="19.43" height="12"/>
	<text transform="matrix(1 0 0 1 393.43 92.3619)" class="st36 st47">KOBIS</text>
	<rect x="315.57" y="81.45" class="st42" width="19.43" height="12"/>
	<text transform="matrix(1.0241 0 0 1 383.5186 108.6917)" class="st36 st48">BAWANG</text>
	<rect x="315.57" y="98.05" class="st39" width="19.43" height="12"/>
	<rect x="487.14" y="44.89" class="st0" width="174.86" height="17.02"/>
	<text transform="matrix(1.0241 0 0 1 560.2098 57.6234)" class="st36 st48">TANGGA</text>
	<rect x="490.43" y="46.98" class="st38" width="2.43" height="12"/>
	<rect x="492.86" y="46.98" class="st38" width="2.43" height="12"/>
	<rect x="495.29" y="46.98" class="st38" width="2.43" height="12"/>
	<rect x="497.71" y="46.98" class="st38" width="2.43" height="12"/>
	<rect x="500.14" y="46.98" class="st38" width="2.43" height="12"/>
	<rect x="502.57" y="46.98" class="st38" width="2.43" height="12"/>
	<rect x="505" y="46.98" class="st38" width="2.43" height="12"/>
	<rect x="507.43" y="46.98" class="st38" width="2.43" height="12"/>
	<polygon class="st49" points="1080.27,81.45 1093.04,47.27 1105.71,81.45 1092.99,65.3 	"/>
	<text transform="matrix(1 0 0 1 1084.8721 44.457)" class="st36 st50">U</text>
</g>
</svg>
